<?xml version="1.0" encoding="UTF-8"?>
<svg xmlns="http://www.w3.org/2000/svg" viewBox="0 292 500 500" width="500" height="500">
<path fill="rgb(100%, 100%, 100%)" fill-rule="nonzero" d="M 500 792 L 0 792 L 0 292 L 500 292 L 500 792 "/>
<path fill="rgb(94.184875%, 24.584961%, 26.475525%)" fill-rule="nonzero" d="M 477.109375 648.691406 L 22.890625 648.691406 L 22.890625 388.417969 L 477.109375 388.417969 L 477.109375 648.691406 "/>
<path fill="rgb(6.266785%, 5.734253%, 5.047607%)" fill-rule="nonzero" d="M 69.414062 400.019531 C 69.195312 400.558594 68.988281 401.09375 68.789062 401.632812 C 69 401.097656 69.21875 400.566406 69.457031 400.039062 C 69.472656 400.007812 69.425781 399.984375 69.414062 400.019531 "/>
<path fill="rgb(6.266785%, 5.734253%, 5.047607%)" fill-rule="nonzero" d="M 42.375 435.8125 C 42.199219 435.824219 42.078125 435.96875 42.117188 436.148438 C 42.3125 437.007812 42.796875 437.363281 43.324219 437.414062 C 43.710938 436.601562 43.628906 435.71875 42.375 435.8125 "/>
<path fill="rgb(6.266785%, 5.734253%, 5.047607%)" fill-rule="nonzero" d="M 99.941406 430.53125 C 100.046875 430.394531 100.15625 430.257812 100.246094 430.136719 C 100.179688 430.171875 100.109375 430.199219 100.035156 430.230469 C 100.015625 430.335938 99.984375 430.4375 99.941406 430.53125 "/>
<path fill="rgb(6.266785%, 5.734253%, 5.047607%)" fill-rule="nonzero" d="M 99.429688 431.175781 C 99.472656 431.371094 99.496094 431.582031 99.488281 431.8125 C 99.617188 431.527344 99.714844 431.195312 99.777344 430.816406 C 99.679688 430.949219 99.5625 431.070312 99.429688 431.175781 "/>
<path fill="rgb(6.266785%, 5.734253%, 5.047607%)" fill-rule="nonzero" d="M 99.777344 430.816406 C 99.839844 430.726562 99.898438 430.632812 99.941406 430.53125 C 99.890625 430.597656 99.851562 430.652344 99.796875 430.71875 C 99.789062 430.753906 99.78125 430.78125 99.777344 430.816406 "/>
<path fill="rgb(6.266785%, 5.734253%, 5.047607%)" fill-rule="nonzero" d="M 110.207031 433.953125 C 110.230469 433.941406 110.253906 433.925781 110.277344 433.910156 C 110.261719 433.910156 110.246094 433.910156 110.230469 433.90625 C 110.222656 433.921875 110.214844 433.9375 110.207031 433.953125 "/>
<path fill="rgb(6.266785%, 5.734253%, 5.047607%)" fill-rule="nonzero" d="M 128.296875 442.496094 C 127.019531 442.8125 125.742188 443.128906 124.46875 443.445312 C 119.679688 444.636719 114.894531 445.828125 110.109375 447.019531 C 109.253906 447.230469 108.402344 447.441406 107.546875 447.65625 C 107.886719 447.289062 108.058594 446.714844 108.074219 446.128906 C 108.214844 446.074219 108.351562 446.023438 108.492188 445.96875 C 108.527344 445.976562 108.566406 445.988281 108.605469 445.992188 C 108.652344 446.097656 108.714844 446.199219 108.792969 446.296875 C 110.070312 447.871094 112.574219 445.597656 113.386719 444.648438 C 113.507812 444.503906 113.636719 444.339844 113.761719 444.167969 C 116.277344 443.40625 118.835938 442.785156 121.4375 442.386719 C 123.996094 441.992188 126.8125 441.632812 129.40625 441.886719 C 131.578125 442.097656 128.910156 442.34375 128.296875 442.496094 Z M 107.648438 448.507812 C 107.773438 448.515625 107.898438 448.53125 108.023438 448.542969 C 107.414062 448.570312 106.804688 448.613281 106.191406 448.664062 C 106.253906 448.601562 106.308594 448.53125 106.355469 448.449219 C 106.785156 448.460938 107.21875 448.476562 107.648438 448.507812 Z M 112.113281 449.566406 C 111.023438 449.660156 109.910156 449.558594 108.789062 449.417969 C 109.898438 449.402344 111.003906 449.453125 112.113281 449.566406 Z M 104.226562 449.933594 C 104.339844 449.925781 104.449219 449.921875 104.5625 449.917969 C 104.503906 450.042969 104.441406 450.167969 104.390625 450.304688 C 104.335938 450.179688 104.28125 450.054688 104.226562 449.933594 Z M 103.425781 453.328125 C 103.589844 453.027344 103.664062 452.6875 103.664062 452.339844 C 103.800781 452.210938 103.921875 452.085938 104.03125 451.972656 C 104.039062 451.976562 104.046875 451.980469 104.054688 451.984375 C 104.039062 452.347656 104.066406 452.707031 104.144531 453.039062 C 103.894531 453.101562 103.652344 453.199219 103.425781 453.328125 Z M 84.582031 441.304688 C 84.734375 441.542969 84.941406 441.738281 85.191406 441.867188 C 85.117188 442.136719 85.089844 442.433594 85.125 442.75 C 85.15625 443.066406 85.222656 443.324219 85.308594 443.539062 C 85.058594 443.671875 84.808594 443.804688 84.570312 443.953125 C 84.652344 443.09375 84.675781 442.171875 84.582031 441.304688 Z M 83.835938 438.914062 C 83.855469 438.886719 83.878906 438.859375 83.898438 438.828125 C 83.90625 438.832031 83.910156 438.839844 83.921875 438.84375 C 84.210938 438.96875 84.515625 438.96875 84.820312 438.886719 C 84.851562 439.167969 84.933594 439.417969 85.066406 439.628906 C 84.964844 439.621094 84.8125 439.632812 84.496094 439.625 C 84.445312 439.621094 84.402344 439.660156 84.390625 439.703125 C 84.359375 439.808594 84.339844 439.90625 84.328125 440.007812 C 84.207031 439.605469 84.046875 439.234375 83.835938 438.914062 Z M 84.542969 433.121094 C 84.542969 433.144531 84.542969 433.164062 84.542969 433.183594 C 84.386719 433.347656 84.261719 433.542969 84.167969 433.753906 C 83.964844 433.550781 83.730469 433.375 83.484375 433.246094 C 83.808594 433.199219 84.15625 433.15625 84.542969 433.121094 Z M 82.632812 435.464844 C 82.464844 435.480469 82.304688 435.523438 82.164062 435.609375 C 82.082031 435.617188 81.996094 435.625 81.910156 435.640625 C 80.414062 434.496094 80.804688 433.722656 83.089844 433.3125 C 82.722656 433.832031 82.523438 434.496094 82.578125 435.152344 C 82.585938 435.257812 82.605469 435.363281 82.632812 435.464844 Z M 80.019531 431.621094 C 80.429688 430.40625 80.894531 429.210938 81.394531 428.03125 C 81.402344 428.132812 81.417969 428.234375 81.445312 428.347656 C 81.820312 429.917969 83.355469 430.664062 84.910156 430.8125 C 84.753906 431.28125 84.644531 431.8125 84.585938 432.347656 C 84.050781 432.414062 83.574219 432.710938 83.222656 433.132812 C 83.085938 433.082031 82.945312 433.046875 82.808594 433.027344 C 81.007812 432.796875 79.5 434.9375 79.820312 436.609375 C 79.839844 436.726562 79.871094 436.828125 79.902344 436.925781 C 79.703125 437.253906 79.621094 437.621094 79.707031 438.003906 C 79.179688 438.160156 78.671875 438.378906 78.191406 438.636719 C 78.222656 438.464844 78.257812 438.296875 78.289062 438.125 C 78.75 436.574219 79.207031 434.96875 79.460938 433.371094 C 79.636719 432.785156 79.820312 432.203125 80.019531 431.621094 Z M 84.707031 429.636719 C 84.957031 429.769531 85.199219 429.808594 85.425781 429.773438 C 85.398438 429.808594 85.371094 429.851562 85.34375 429.890625 C 85.121094 429.871094 84.898438 429.828125 84.6875 429.757812 C 84.613281 429.734375 84.542969 429.707031 84.476562 429.679688 C 84.558594 429.667969 84.632812 429.652344 84.707031 429.636719 Z M 86.171875 430.804688 C 86.335938 430.785156 86.496094 430.761719 86.652344 430.730469 C 86.707031 430.839844 86.777344 430.941406 86.859375 431.039062 C 86.476562 431.8125 86.621094 432.730469 87.96875 433.121094 C 88.007812 433.132812 88.042969 433.136719 88.082031 433.148438 C 87.832031 433.296875 87.601562 433.492188 87.40625 433.738281 C 87.136719 433.199219 86.667969 432.785156 85.953125 432.6875 C 85.949219 432.6875 85.945312 432.6875 85.9375 432.6875 C 85.847656 432.617188 85.753906 432.558594 85.660156 432.515625 C 85.507812 432.449219 85.363281 432.40625 85.21875 432.378906 C 85.296875 431.710938 85.617188 431.1875 86.171875 430.804688 Z M 86.542969 428.78125 C 86.703125 428.894531 86.851562 429.019531 86.996094 429.15625 C 86.921875 429.226562 86.859375 429.296875 86.800781 429.367188 C 86.617188 429.269531 86.4375 429.226562 86.269531 429.238281 C 86.378906 429.101562 86.46875 428.949219 86.542969 428.78125 Z M 90.078125 429.859375 C 90.164062 429.859375 90.242188 429.847656 90.316406 429.828125 C 90.230469 430.003906 90.148438 430.179688 90.066406 430.359375 C 90.019531 430.179688 89.957031 430.007812 89.882812 429.839844 C 89.945312 429.855469 90.007812 429.859375 90.078125 429.859375 Z M 93.476562 434.011719 C 93.746094 433.964844 94.019531 433.835938 94.273438 433.652344 C 94.316406 434.578125 95.203125 435.242188 96.027344 435.148438 C 95.777344 436.230469 96.066406 437.269531 97.300781 436.824219 C 97.652344 436.699219 97.929688 436.53125 98.164062 436.335938 C 98.164062 436.433594 98.160156 436.527344 98.15625 436.621094 C 98.101562 436.789062 98.019531 436.992188 97.882812 437.257812 C 97.546875 437.902344 97.007812 438.367188 96.582031 438.933594 C 96.566406 438.953125 96.550781 438.976562 96.535156 439 C 96.492188 438.023438 96.152344 436.820312 95.082031 436.945312 C 94.792969 436.691406 94.402344 436.546875 93.929688 436.570312 C 93.800781 436.132812 93.554688 435.730469 93.15625 435.433594 C 93.011719 435.324219 92.753906 435.40625 92.675781 435.5625 C 92.613281 435.679688 92.558594 435.8125 92.503906 435.957031 C 92.300781 435.628906 92.011719 435.394531 91.6875 435.320312 C 91.800781 435.050781 91.847656 434.792969 91.84375 434.554688 C 92.671875 434.78125 93.207031 434.503906 93.476562 434.011719 Z M 98.261719 432.402344 C 98.082031 432.171875 97.878906 431.96875 97.65625 431.808594 C 97.894531 431.785156 98.136719 431.75 98.371094 431.6875 C 98.328125 431.925781 98.292969 432.164062 98.261719 432.402344 Z M 96.40625 440.265625 C 96.441406 440.121094 96.472656 439.980469 96.496094 439.851562 C 96.84375 439.613281 97.183594 439.289062 97.503906 438.917969 C 97.21875 439.394531 96.851562 439.824219 96.40625 440.265625 Z M 98.597656 438.613281 C 98.605469 438.644531 98.621094 438.671875 98.640625 438.695312 C 98.496094 439.261719 98.441406 439.859375 98.609375 440.359375 C 98.359375 440.328125 98.117188 440.359375 97.886719 440.429688 C 97.859375 440.40625 97.84375 440.382812 97.816406 440.355469 C 97.707031 440.261719 97.539062 440.1875 97.390625 440.246094 C 96.652344 440.53125 96.386719 441.085938 96.453125 441.589844 C 96.035156 442.207031 95.777344 442.964844 95.769531 443.648438 C 95.535156 443.457031 95.285156 443.28125 95.027344 443.125 C 95.464844 442.539062 95.832031 441.855469 96.09375 441.210938 C 96.625 440.738281 97.171875 440.289062 97.632812 439.746094 C 98.101562 439.199219 98.378906 438.648438 98.546875 438.074219 C 98.546875 438.242188 98.5625 438.417969 98.597656 438.613281 Z M 100.351562 433.148438 C 100.492188 433.667969 100.632812 434.1875 100.773438 434.703125 C 100.785156 434.980469 100.761719 435.246094 100.722656 435.507812 C 99.519531 435.347656 99.390625 434.5625 100.351562 433.148438 Z M 100.9375 436.339844 C 101.550781 436.546875 102.257812 436.542969 102.941406 436.222656 C 102.625 436.59375 102.3125 436.96875 102.011719 437.351562 C 101.726562 436.949219 101.308594 436.675781 100.855469 436.539062 C 100.882812 436.472656 100.914062 436.40625 100.9375 436.339844 Z M 103.433594 434.691406 C 103.398438 434.90625 103.394531 435.09375 103.414062 435.261719 C 103.355469 435.277344 103.292969 435.289062 103.234375 435.300781 C 102.503906 433.085938 102.570312 432.882812 103.433594 434.691406 Z M 109.886719 430.351562 C 109.949219 430.5 110.042969 430.644531 110.179688 430.785156 C 110.1875 430.792969 110.195312 430.800781 110.203125 430.808594 C 110.019531 430.933594 109.835938 431.058594 109.648438 431.183594 C 109.546875 431.171875 109.433594 431.199219 109.367188 431.273438 C 109.304688 431.34375 109.253906 431.417969 109.203125 431.496094 C 108.929688 431.6875 108.65625 431.878906 108.386719 432.074219 C 108.242188 431.972656 108.089844 431.886719 107.921875 431.820312 C 108.5625 431.304688 109.214844 430.816406 109.886719 430.351562 Z M 120.65625 425.308594 C 118.425781 426.136719 116.238281 427.1875 114.140625 428.375 C 114.113281 428.253906 114.066406 428.136719 113.980469 428.023438 C 113.953125 427.988281 113.929688 427.964844 113.902344 427.9375 C 116.054688 426.835938 118.316406 425.957031 120.65625 425.308594 Z M 108.8125 432.480469 C 108.847656 432.457031 108.882812 432.433594 108.914062 432.410156 C 108.914062 432.476562 108.90625 432.546875 108.914062 432.613281 C 108.886719 432.566406 108.847656 432.523438 108.8125 432.480469 Z M 112.113281 431.292969 C 112 432.398438 111.390625 433.269531 110.277344 433.910156 C 110.75 433.976562 111.15625 433.84375 111.492188 433.585938 C 111.324219 433.828125 111.121094 434.066406 110.878906 434.296875 C 109.699219 435.402344 107.453125 435.765625 105.96875 436.425781 C 104.78125 436.953125 103.527344 437.632812 102.386719 438.457031 C 102.378906 438.28125 102.34375 438.117188 102.300781 437.964844 C 102.839844 437.429688 103.394531 436.914062 103.953125 436.40625 C 104.359375 436.449219 104.789062 436.429688 105.207031 436.316406 C 105.78125 436.25 106.398438 436.019531 106.894531 435.675781 C 107.234375 435.691406 107.535156 435.59375 107.792969 435.425781 C 108.730469 435.347656 109.726562 434.777344 110.207031 433.953125 C 109.722656 434.226562 109.144531 434.449219 108.476562 434.636719 C 108.527344 434.539062 108.570312 434.441406 108.609375 434.34375 C 108.632812 434.316406 108.652344 434.296875 108.675781 434.269531 C 109 433.878906 109.113281 433.503906 109.089844 433.160156 C 109.242188 433.4375 109.484375 433.671875 109.851562 433.808594 C 109.984375 433.855469 110.109375 433.886719 110.230469 433.90625 C 110.59375 433.253906 110.636719 432.449219 110.082031 431.609375 C 110.300781 431.464844 110.515625 431.328125 110.730469 431.1875 C 111.183594 431.417969 111.660156 431.433594 112.113281 431.292969 Z M 101.40625 447.210938 C 101.46875 447.214844 101.523438 447.214844 101.582031 447.21875 C 101.640625 447.210938 101.695312 447.199219 101.753906 447.191406 C 101.523438 447.835938 101.035156 448.566406 100.582031 449.125 C 100.402344 449.210938 100.21875 449.296875 100.035156 449.386719 C 99.820312 448.898438 99.714844 448.492188 99.730469 448.167969 C 100.347656 448.003906 100.941406 447.660156 101.40625 447.210938 Z M 100.5625 446.183594 C 100.640625 446.214844 100.714844 446.246094 100.792969 446.289062 C 100.566406 446.933594 100.355469 446.894531 100.15625 446.15625 C 100.289062 446.175781 100.425781 446.183594 100.5625 446.183594 Z M 105.539062 443.542969 C 105.386719 443.949219 105.214844 444.351562 104.992188 444.75 C 104.65625 445.042969 104.367188 445.40625 104.144531 445.804688 C 103.789062 446.089844 103.40625 446.28125 102.996094 446.410156 C 102.992188 446.386719 102.984375 446.363281 102.980469 446.339844 C 103.007812 446.042969 102.972656 445.765625 102.875 445.515625 C 103.816406 445.015625 104.730469 444.292969 105.539062 443.542969 Z M 107.183594 444.144531 C 107.183594 444.148438 107.179688 444.148438 107.179688 444.152344 C 107.15625 444.167969 107.132812 444.191406 107.109375 444.210938 C 107.105469 444.207031 107.105469 444.207031 107.101562 444.207031 C 107.128906 444.1875 107.15625 444.164062 107.183594 444.144531 Z M 109.132812 441.65625 C 109.539062 441.566406 109.796875 441.203125 109.949219 440.757812 C 110.097656 440.8125 110.261719 440.839844 110.433594 440.832031 C 110.710938 440.816406 110.996094 440.707031 111.261719 440.539062 C 111.390625 440.566406 111.523438 440.578125 111.660156 440.5625 C 111.609375 440.621094 111.5625 440.683594 111.515625 440.75 C 110.894531 441.140625 110.285156 441.542969 109.679688 441.957031 C 109.46875 441.929688 109.261719 441.949219 109.0625 441.996094 C 109.089844 441.886719 109.113281 441.769531 109.132812 441.65625 Z M 112.957031 439.632812 C 113.007812 439.679688 113.066406 439.722656 113.136719 439.753906 C 113.019531 439.824219 112.902344 439.894531 112.785156 439.964844 C 112.859375 439.863281 112.921875 439.757812 112.957031 439.632812 Z M 114.089844 439.644531 C 114.089844 439.644531 114.085938 439.644531 114.085938 439.644531 C 114.097656 439.625 114.105469 439.601562 114.113281 439.578125 C 114.484375 439.367188 114.855469 439.148438 115.226562 438.941406 C 114.847656 439.175781 114.46875 439.40625 114.089844 439.644531 Z M 110.820312 444.855469 C 110.929688 444.722656 111.027344 444.585938 111.113281 444.4375 C 111.464844 444.425781 111.867188 444.285156 112.265625 444.070312 C 112.53125 444.046875 112.847656 443.945312 113.210938 443.730469 C 113.269531 443.699219 113.328125 443.65625 113.382812 443.617188 C 113.308594 443.773438 113.179688 443.949219 113.027344 444.132812 C 112.285156 444.359375 111.554688 444.601562 110.820312 444.855469 Z M 108.074219 445.84375 C 108.082031 445.847656 108.089844 445.847656 108.097656 445.851562 C 108.089844 445.855469 108.082031 445.859375 108.074219 445.863281 C 108.074219 445.855469 108.074219 445.851562 108.074219 445.84375 Z M 103.042969 447.976562 C 103.054688 447.910156 103.066406 447.84375 103.078125 447.777344 C 103.15625 447.722656 103.242188 447.667969 103.328125 447.609375 C 103.269531 447.710938 103.214844 447.816406 103.164062 447.921875 C 103.125 447.9375 103.085938 447.957031 103.042969 447.976562 Z M 102.957031 448.523438 C 102.941406 448.527344 102.929688 448.53125 102.914062 448.53125 C 102.941406 448.441406 102.972656 448.347656 102.992188 448.253906 C 103.007812 448.25 103.023438 448.242188 103.039062 448.234375 C 103.007812 448.328125 102.980469 448.425781 102.957031 448.523438 Z M 104.441406 448.710938 C 104.464844 448.703125 104.484375 448.699219 104.503906 448.695312 C 104.574219 448.738281 104.648438 448.773438 104.722656 448.808594 C 104.609375 448.820312 104.496094 448.832031 104.386719 448.847656 C 104.402344 448.800781 104.425781 448.757812 104.441406 448.710938 Z M 96.832031 444.6875 C 97.261719 444.34375 97.679688 443.945312 98.003906 443.515625 C 97.875 444 97.75 444.484375 97.621094 444.96875 C 97.546875 445.070312 97.429688 445.167969 97.28125 445.257812 C 97.136719 445.0625 96.988281 444.871094 96.832031 444.6875 Z M 103.09375 450.75 C 102.882812 450.511719 102.617188 450.328125 102.316406 450.242188 C 102.519531 450.195312 102.71875 450.152344 102.921875 450.105469 C 102.960938 450.328125 103.015625 450.546875 103.09375 450.75 Z M 102.902344 448.808594 C 102.875 448.816406 102.847656 448.824219 102.816406 448.828125 C 102.820312 448.824219 102.824219 448.816406 102.824219 448.808594 C 102.851562 448.804688 102.878906 448.796875 102.90625 448.789062 C 102.90625 448.796875 102.902344 448.804688 102.902344 448.808594 Z M 102.214844 448.964844 C 102.210938 448.96875 102.207031 448.976562 102.203125 448.984375 C 101.96875 449.039062 101.804688 449.082031 101.699219 449.105469 C 101.703125 449.101562 101.707031 449.097656 101.710938 449.09375 C 101.832031 449.0625 102.011719 449.015625 102.214844 448.964844 Z M 101.957031 448.746094 C 101.980469 448.726562 102.003906 448.703125 102.023438 448.683594 C 102.171875 448.617188 102.324219 448.554688 102.472656 448.484375 C 102.441406 448.550781 102.414062 448.617188 102.382812 448.679688 C 102.222656 448.726562 102.0625 448.769531 101.902344 448.824219 C 101.921875 448.796875 101.9375 448.773438 101.957031 448.746094 Z M 102.585938 448.179688 C 102.601562 448.167969 102.613281 448.152344 102.628906 448.140625 C 102.625 448.148438 102.621094 448.15625 102.617188 448.164062 C 102.605469 448.171875 102.597656 448.175781 102.585938 448.179688 Z M 105.984375 445.945312 C 105.898438 446.179688 105.832031 446.414062 105.789062 446.640625 C 105.671875 446.574219 105.546875 446.519531 105.417969 446.484375 C 105.410156 446.480469 105.402344 446.480469 105.390625 446.480469 C 105.464844 446.3125 105.535156 446.144531 105.605469 445.976562 C 105.675781 445.925781 105.742188 445.871094 105.8125 445.816406 C 105.871094 445.859375 105.929688 445.90625 105.984375 445.945312 Z M 110.851562 441.722656 C 110.648438 441.855469 110.449219 441.992188 110.246094 442.128906 C 110.246094 442.125 110.246094 442.125 110.246094 442.121094 C 110.191406 442.097656 110.136719 442.078125 110.085938 442.058594 C 110.40625 441.84375 110.734375 441.628906 111.0625 441.421875 C 110.988281 441.515625 110.917969 441.617188 110.851562 441.722656 Z M 113.695312 439.816406 C 113.753906 439.808594 113.816406 439.792969 113.882812 439.773438 C 113.601562 439.949219 113.324219 440.136719 113.046875 440.3125 C 113.011719 440.296875 112.976562 440.273438 112.945312 440.257812 C 113.195312 440.109375 113.441406 439.964844 113.695312 439.816406 Z M 95.140625 441.445312 C 94.769531 441.792969 94.40625 442.167969 94.113281 442.585938 C 94.09375 442.601562 94.070312 442.617188 94.046875 442.632812 C 93.605469 442.453125 93.132812 442.3125 92.625 442.226562 C 93.375 442.105469 93.769531 441.1875 93.769531 440.265625 C 93.960938 440.203125 94.167969 440.109375 94.398438 439.972656 C 94.8125 440.339844 95.3125 440.378906 95.832031 440.195312 C 95.609375 440.621094 95.390625 441.050781 95.140625 441.445312 Z M 91.894531 442.101562 C 91.925781 442.113281 91.953125 442.128906 91.984375 442.140625 C 91.957031 442.140625 91.929688 442.140625 91.902344 442.136719 C 91.902344 442.125 91.898438 442.113281 91.894531 442.101562 Z M 110.503906 445.734375 C 110.523438 445.597656 110.554688 445.410156 110.589844 445.203125 C 111.28125 444.960938 111.976562 444.722656 112.675781 444.5 C 112.058594 445.089844 111.1875 445.664062 110.472656 445.808594 C 110.480469 445.78125 110.496094 445.761719 110.503906 445.734375 Z M 68.628906 423.179688 C 68.695312 423.113281 68.753906 423.042969 68.816406 422.972656 C 68.949219 423.730469 69.433594 424.253906 70.304688 423.738281 C 70.289062 423.960938 70.277344 424.183594 70.269531 424.40625 C 69.867188 424.550781 69.476562 424.726562 69.109375 424.925781 C 68.828125 424.378906 68.664062 423.796875 68.628906 423.179688 Z M 70.824219 419.445312 C 70.800781 419.570312 70.78125 419.695312 70.761719 419.820312 C 70.703125 419.824219 70.644531 419.832031 70.585938 419.847656 C 70.632812 419.671875 70.71875 419.546875 70.824219 419.445312 Z M 73.921875 409.617188 C 75.070312 406.453125 76.554688 403.378906 78.5625 400.664062 C 79.386719 399.554688 80.839844 398.011719 81.480469 397.148438 C 80.558594 398.390625 79.644531 399.621094 78.808594 400.921875 C 75.601562 405.894531 73.222656 411.410156 71.933594 417.1875 C 71.816406 417.230469 71.703125 417.285156 71.597656 417.351562 C 72.195312 414.683594 73.027344 412.070312 73.921875 409.617188 Z M 72.597656 419.917969 C 72.632812 419.984375 72.664062 420.054688 72.710938 420.121094 C 72.820312 420.277344 73.046875 420.375 73.222656 420.253906 C 73.40625 420.128906 73.558594 419.976562 73.683594 419.8125 C 73.65625 420.097656 73.613281 420.382812 73.546875 420.660156 C 73.523438 420.792969 73.492188 420.925781 73.449219 421.054688 C 73.40625 421.363281 73.242188 421.429688 72.964844 421.253906 C 72.859375 420.941406 72.746094 420.660156 72.636719 420.445312 C 72.523438 420.21875 72.167969 420.175781 72 420.363281 C 71.945312 420.425781 71.894531 420.492188 71.851562 420.5625 C 71.808594 420.464844 71.753906 420.367188 71.675781 420.273438 C 71.660156 420.25 71.644531 420.234375 71.628906 420.21875 C 71.636719 420.160156 71.648438 420.105469 71.65625 420.050781 C 71.980469 420.164062 72.335938 420.136719 72.597656 419.917969 Z M 73.347656 423.820312 C 73.289062 423.820312 73.234375 423.824219 73.175781 423.828125 C 73.269531 423.511719 73.296875 423.148438 73.273438 422.769531 C 73.304688 422.75 73.335938 422.734375 73.367188 422.710938 C 73.546875 422.578125 73.707031 422.402344 73.851562 422.195312 C 73.679688 422.738281 73.515625 423.277344 73.347656 423.820312 Z M 79.113281 408.417969 C 79.59375 407.058594 80.09375 405.703125 80.601562 404.351562 C 80.675781 404.152344 80.761719 403.949219 80.847656 403.746094 C 80.367188 405.695312 80.09375 407.765625 79.605469 409.667969 C 78.960938 412.203125 78.25 414.722656 77.472656 417.222656 C 76.765625 419.503906 75.988281 421.761719 75.160156 424 C 74.949219 423.945312 74.730469 423.898438 74.503906 423.871094 C 74.390625 423.855469 74.265625 423.847656 74.144531 423.835938 C 74.917969 421.277344 75.699219 418.722656 76.515625 416.175781 C 77.347656 413.582031 78.207031 410.992188 79.113281 408.417969 Z M 70.996094 421.863281 C 71.046875 421.863281 71.09375 421.847656 71.140625 421.839844 C 71.125 421.957031 71.113281 422.074219 71.101562 422.191406 C 71.082031 422.078125 71.046875 421.964844 70.996094 421.863281 Z M 71.554688 421.683594 C 71.582031 422.359375 71.929688 422.96875 72.5 423.015625 C 72.289062 423.125 71.921875 423.128906 71.382812 423.003906 C 71.589844 422.90625 71.507812 422.59375 71.328125 422.53125 C 71.355469 422.269531 71.386719 422.011719 71.414062 421.753906 C 71.464844 421.730469 71.515625 421.714844 71.554688 421.683594 Z M 71.144531 419.695312 C 71.222656 419.785156 71.3125 419.863281 71.40625 419.925781 C 71.402344 419.949219 71.398438 419.976562 71.394531 420.003906 C 71.304688 419.941406 71.210938 419.894531 71.117188 419.863281 C 71.128906 419.808594 71.136719 419.753906 71.144531 419.695312 Z M 48.71875 445.945312 C 48.414062 446.253906 47.941406 446.59375 47.46875 446.78125 C 47.628906 446.550781 47.746094 446.273438 47.820312 445.992188 C 48.3125 446.050781 48.917969 445.722656 49.292969 445.207031 C 49.171875 445.5 48.984375 445.75 48.71875 445.945312 Z M 48.261719 442.566406 C 48.445312 442.589844 48.628906 442.648438 48.820312 442.71875 C 48.738281 442.707031 48.652344 442.707031 48.558594 442.714844 C 48.4375 442.730469 48.320312 442.761719 48.210938 442.8125 C 48.082031 442.804688 47.953125 442.808594 47.824219 442.832031 C 47.539062 442.882812 47.277344 443.003906 47.042969 443.175781 C 46.871094 442.667969 47.277344 442.460938 48.261719 442.566406 Z M 50.40625 442.546875 C 50.417969 442.558594 50.429688 442.566406 50.4375 442.574219 C 50.425781 442.570312 50.417969 442.5625 50.410156 442.558594 C 50.410156 442.554688 50.410156 442.550781 50.40625 442.546875 Z M 51.886719 432.90625 C 51.976562 432.890625 52.078125 432.882812 52.1875 432.875 C 52.179688 433.484375 52.667969 434.054688 53.367188 433.667969 C 53.609375 433.535156 53.75 433.308594 53.78125 433.070312 C 53.902344 433.105469 54.019531 433.152344 54.132812 433.203125 C 54.0625 433.492188 54.074219 433.800781 54.148438 434.109375 C 54.023438 434.183594 53.898438 434.296875 53.78125 434.476562 C 53.339844 435.164062 53.589844 436.03125 54.128906 436.738281 C 53.625 436.738281 53.140625 436.644531 52.679688 436.421875 C 52.375 436.324219 52.09375 436.179688 51.835938 435.984375 C 50.613281 435.324219 50.628906 434.296875 51.886719 432.90625 Z M 53.914062 439.6875 C 53.902344 439.679688 53.886719 439.671875 53.875 439.664062 C 53.921875 439.578125 53.929688 439.472656 53.84375 439.402344 C 53.757812 439.328125 53.667969 439.261719 53.578125 439.1875 C 53.515625 438.953125 53.382812 438.738281 53.132812 438.570312 C 53.921875 438.769531 54.714844 439.101562 55.21875 439.289062 C 54.898438 439.582031 54.582031 439.882812 54.273438 440.191406 C 54.191406 439.996094 54.078125 439.824219 53.914062 439.6875 Z M 50.605469 442.027344 C 50.550781 441.964844 50.5 441.902344 50.441406 441.84375 C 50.460938 441.625 50.515625 441.6875 50.605469 442.027344 Z M 52.027344 439.25 C 52.214844 439.527344 52.398438 439.804688 52.582031 440.085938 C 52.574219 440.203125 52.507812 440.289062 52.414062 440.363281 C 52.046875 440.28125 51.734375 440.363281 51.476562 440.554688 C 51.378906 440.546875 51.292969 440.53125 51.234375 440.507812 C 51.058594 440.429688 50.917969 440.320312 50.8125 440.183594 C 50.976562 439.984375 51.15625 439.796875 51.363281 439.640625 C 51.554688 439.460938 51.777344 439.332031 52.027344 439.25 Z M 52.089844 442.566406 C 52.085938 442.5625 52.078125 442.558594 52.074219 442.554688 C 52.113281 442.503906 52.148438 442.449219 52.183594 442.402344 C 52.34375 442.191406 52.207031 441.988281 52.015625 441.90625 C 52.015625 441.882812 52.015625 441.859375 52.015625 441.835938 C 52.4375 441.503906 52.601562 441.5625 52.5 442.027344 C 52.503906 442.046875 52.503906 442.066406 52.507812 442.082031 C 52.363281 442.246094 52.226562 442.40625 52.089844 442.566406 Z M 56.066406 438.015625 C 56.136719 438.148438 56.210938 438.269531 56.285156 438.378906 C 56.085938 438.539062 55.890625 438.703125 55.691406 438.871094 C 55.691406 438.871094 55.691406 438.867188 55.6875 438.867188 C 54.933594 438.25 53.484375 437.597656 52.1875 437.539062 C 51.953125 437.261719 51.71875 436.980469 51.484375 436.703125 C 51.480469 436.691406 51.472656 436.679688 51.46875 436.667969 C 52.359375 437.203125 53.65625 437.578125 54.597656 437.246094 C 55.039062 437.648438 55.566406 437.9375 56.066406 438.015625 Z M 56.019531 434.042969 C 56.089844 433.96875 56.15625 433.902344 56.222656 433.847656 C 56.296875 433.960938 56.386719 434.066406 56.480469 434.167969 C 56.433594 434.414062 56.417969 434.683594 56.429688 434.957031 C 56.300781 434.957031 56.1875 434.976562 56.089844 435.023438 C 56.109375 434.71875 56.058594 434.390625 55.957031 434.0625 C 55.980469 434.058594 55.996094 434.050781 56.019531 434.042969 Z M 57.539062 430.960938 C 57.671875 430.917969 57.894531 431.296875 58.097656 431.71875 C 57.859375 431.492188 57.605469 431.316406 57.367188 431.222656 C 57.386719 431.097656 57.433594 430.996094 57.539062 430.960938 Z M 59.859375 434.828125 C 59.828125 434.835938 59.800781 434.851562 59.773438 434.863281 C 59.765625 434.769531 59.757812 434.675781 59.746094 434.585938 C 59.785156 434.664062 59.820312 434.746094 59.859375 434.828125 Z M 56.339844 424.132812 C 55.902344 422.910156 55.871094 422.578125 56.851562 423.675781 C 57.609375 424.523438 58.109375 425.984375 58.625 426.996094 C 59.246094 428.226562 59.828125 429.46875 60.378906 430.722656 C 60.839844 431.976562 61.363281 433.210938 61.898438 434.441406 C 61.882812 434.472656 61.871094 434.507812 61.859375 434.539062 C 59.664062 431.242188 57.691406 427.9375 56.339844 424.132812 Z M 64.4375 434.96875 C 64.460938 434.992188 64.472656 435.023438 64.488281 435.054688 C 64.488281 435.25 64.488281 435.476562 64.480469 435.734375 C 64.449219 435.789062 64.417969 435.847656 64.371094 435.894531 C 64.292969 435.714844 64.226562 435.527344 64.1875 435.335938 C 64.136719 435.078125 64.070312 434.589844 64.4375 434.96875 Z M 64.820312 432.042969 C 64.855469 432.011719 64.882812 431.972656 64.890625 431.914062 C 64.921875 431.746094 64.9375 431.582031 64.949219 431.417969 C 64.996094 432.445312 65.082031 433.46875 65.222656 434.476562 C 65.109375 434.316406 64.960938 434.175781 64.796875 434.058594 C 64.796875 433.320312 64.804688 432.632812 64.820312 432.042969 Z M 66.097656 409.136719 C 66.140625 409.121094 66.183594 409.101562 66.222656 409.066406 C 66.316406 408.984375 66.40625 408.894531 66.488281 408.808594 C 66.402344 409.148438 66.316406 409.488281 66.234375 409.828125 C 66.203125 409.597656 66.160156 409.367188 66.097656 409.136719 Z M 65.464844 421.988281 C 65.457031 422.042969 65.453125 422.09375 65.445312 422.148438 C 65.433594 422.117188 65.421875 422.089844 65.40625 422.058594 C 65.429688 422.035156 65.445312 422.011719 65.464844 421.988281 Z M 67.765625 414.285156 C 67.847656 414.519531 68.117188 414.535156 68.261719 414.347656 C 68.332031 414.257812 68.550781 413.90625 68.800781 413.464844 C 69.011719 413.5625 68.863281 413.953125 68.347656 414.640625 C 68.242188 414.761719 68.167969 414.886719 68.101562 415.015625 C 68.082031 415 68.066406 414.976562 68.039062 414.960938 C 67.855469 414.835938 67.679688 414.78125 67.519531 414.769531 C 67.566406 414.507812 67.609375 414.242188 67.660156 413.980469 C 67.695312 414.085938 67.730469 414.1875 67.765625 414.285156 Z M 67.480469 418.621094 C 67.292969 418.53125 67.105469 418.492188 66.921875 418.488281 C 67.023438 417.753906 67.121094 417.023438 67.242188 416.292969 C 67.476562 416.335938 67.710938 416.273438 67.9375 416.125 C 67.753906 416.980469 67.535156 417.789062 67.480469 418.621094 Z M 67.75 420.9375 C 67.621094 420.792969 67.441406 420.679688 67.203125 420.613281 C 66.996094 420.558594 66.816406 420.574219 66.65625 420.636719 C 66.671875 420.5 66.6875 420.363281 66.703125 420.226562 C 66.945312 419.992188 67.214844 419.671875 67.472656 419.304688 C 67.484375 419.472656 67.503906 419.648438 67.535156 419.820312 C 67.710938 420.207031 67.78125 420.578125 67.75 420.9375 Z M 66.308594 424.515625 C 66.339844 424.0625 66.371094 423.605469 66.410156 423.152344 C 66.507812 423.207031 66.621094 423.246094 66.753906 423.253906 C 66.890625 423.257812 67.011719 423.226562 67.132812 423.183594 C 66.984375 423.6875 66.710938 424.132812 66.308594 424.515625 Z M 65.277344 429.011719 C 65.3125 428.945312 65.34375 428.875 65.363281 428.800781 C 65.332031 429.695312 65.296875 430.605469 65.28125 431.527344 C 65.253906 431.144531 65.238281 430.84375 65.238281 430.675781 C 65.242188 430.121094 65.257812 429.566406 65.277344 429.011719 Z M 65.222656 424.09375 C 65.222656 424.054688 65.226562 424.019531 65.226562 423.984375 C 65.195312 424 65.164062 424.015625 65.132812 424.03125 C 65.160156 424.097656 65.183594 424.160156 65.210938 424.226562 C 65.203125 424.3125 65.195312 424.398438 65.183594 424.484375 C 65.148438 424.664062 65.082031 424.839844 64.992188 425.003906 C 65.003906 424.695312 65.015625 424.386719 65.027344 424.078125 C 65.0625 424.0625 65.101562 424.050781 65.132812 424.03125 C 65.101562 423.964844 65.066406 423.902344 65.035156 423.835938 C 65.042969 423.609375 65.050781 423.382812 65.0625 423.15625 C 65.160156 423.445312 65.214844 423.722656 65.226562 423.984375 C 65.226562 423.980469 65.230469 423.976562 65.234375 423.976562 C 65.230469 424.015625 65.226562 424.054688 65.222656 424.09375 Z M 64.941406 426.984375 C 64.960938 426.972656 64.972656 426.953125 64.988281 426.9375 C 64.988281 426.976562 64.984375 427.015625 64.980469 427.054688 C 64.96875 427.03125 64.957031 427.007812 64.941406 426.984375 Z M 65.421875 427.242188 C 65.410156 427.511719 65.402344 427.796875 65.390625 428.070312 C 65.375 427.992188 65.355469 427.914062 65.335938 427.835938 C 65.367188 427.308594 65.402344 426.777344 65.445312 426.25 C 65.453125 426.226562 65.464844 426.199219 65.46875 426.175781 C 65.453125 426.53125 65.433594 426.886719 65.421875 427.242188 Z M 65.003906 437.449219 C 65.011719 437.445312 65.015625 437.4375 65.019531 437.433594 C 65.015625 437.441406 65.015625 437.453125 65.015625 437.460938 C 65.011719 437.457031 65.007812 437.453125 65.003906 437.449219 Z M 65.082031 436.5 C 65.097656 436.480469 65.109375 436.464844 65.121094 436.449219 C 65.117188 436.488281 65.113281 436.527344 65.109375 436.566406 C 65.101562 436.542969 65.09375 436.519531 65.082031 436.5 Z M 45.402344 441.867188 C 44.707031 442.210938 44.125 442.914062 43.4375 443.207031 C 42.769531 443.484375 42.378906 443.675781 42.90625 442.828125 C 43.101562 442.511719 43.480469 442.1875 43.75 441.929688 C 45.144531 440.605469 46.632812 440.429688 47.996094 440.917969 C 47.003906 441.148438 46.015625 441.5625 45.402344 441.867188 Z M 42.691406 438.902344 C 42.683594 438.894531 42.683594 438.886719 42.675781 438.878906 C 42.660156 438.867188 42.648438 438.859375 42.632812 438.851562 C 42.683594 438.824219 42.730469 438.800781 42.78125 438.773438 C 42.75 438.816406 42.71875 438.859375 42.691406 438.902344 Z M 105.230469 408.75 C 105.539062 408.019531 105.675781 407.738281 106.609375 407.640625 C 106.695312 407.640625 106.78125 407.648438 106.867188 407.648438 C 106.738281 407.808594 106.648438 407.976562 106.625 408.148438 C 106.539062 408.082031 106.441406 408.035156 106.335938 408.023438 C 105.84375 407.976562 105.640625 408.320312 105.648438 408.714844 C 105.507812 408.695312 105.367188 408.710938 105.230469 408.75 Z M 109.207031 407.855469 C 109.265625 408.363281 108.792969 408.703125 108.1875 408.929688 C 108.261719 408.746094 108.277344 408.539062 108.203125 408.308594 C 108.140625 408.109375 108.007812 407.960938 107.847656 407.859375 C 107.8125 407.738281 107.742188 407.621094 107.648438 407.519531 C 108.15625 407.105469 108.675781 407.214844 109.207031 407.855469 Z M 100.480469 418.738281 C 100.480469 418.738281 100.476562 418.738281 100.476562 418.738281 C 100.476562 418.738281 100.480469 418.738281 100.480469 418.738281 Z M 100.90625 420.074219 C 100.847656 420.105469 100.789062 420.128906 100.714844 420.148438 C 100.375 420.234375 99.917969 419.824219 100.15625 419.472656 C 100.394531 419.121094 100.914062 419.296875 100.96875 419.6875 C 100.988281 419.824219 100.960938 419.957031 100.90625 420.074219 Z M 131.195312 441.777344 C 125.277344 441.34375 119.535156 442.222656 113.972656 443.851562 C 114.398438 443.179688 114.710938 442.386719 114.457031 441.726562 C 114.453125 441.179688 114.160156 440.6875 113.429688 440.46875 C 116.230469 438.699219 119.101562 437.0625 122.03125 435.519531 C 122.863281 435.1875 123.898438 434.753906 124.050781 434.480469 C 124.3125 434.347656 124.570312 434.210938 124.832031 434.078125 C 125.0625 433.964844 124.859375 433.625 124.632812 433.734375 C 121 435.492188 117.375 437.28125 113.902344 439.304688 C 113.785156 439.304688 113.691406 439.273438 113.621094 439.199219 C 113.761719 439.09375 113.878906 438.976562 113.96875 438.859375 C 114.128906 438.644531 113.945312 438.359375 113.734375 438.285156 C 113.257812 438.121094 112.9375 438.320312 112.792969 438.621094 C 112.628906 438.347656 112.390625 438.152344 112.128906 438.027344 C 111.714844 437.511719 110.878906 437.4375 110.550781 438.152344 C 110.53125 438.195312 110.527344 438.242188 110.511719 438.285156 C 110.417969 438.386719 110.335938 438.503906 110.265625 438.644531 C 110.191406 438.796875 110.152344 438.957031 110.144531 439.113281 C 110.058594 438.75 109.558594 438.683594 109.339844 439 C 109.105469 439.34375 109.089844 439.722656 109.21875 440.050781 C 109.214844 440.0625 109.214844 440.078125 109.210938 440.089844 C 109.242188 440.296875 109.226562 440.417969 109.171875 440.464844 C 109.15625 440.28125 109.136719 440.105469 109.105469 439.9375 C 109.054688 439.664062 108.714844 439.578125 108.5 439.691406 C 107.738281 440.09375 107.601562 441.152344 108.402344 441.539062 C 108.398438 441.566406 108.394531 441.59375 108.390625 441.621094 C 108.363281 441.777344 108.285156 442.183594 108.152344 442.46875 C 108.042969 442.5625 107.9375 442.664062 107.839844 442.773438 C 107.707031 442.769531 107.550781 442.613281 107.371094 442.183594 C 107.285156 441.980469 106.96875 442.050781 107.03125 442.277344 C 107.136719 442.664062 107.253906 442.996094 107.488281 443.273438 C 107.417969 443.398438 107.355469 443.53125 107.304688 443.664062 C 107.113281 443.8125 106.917969 443.957031 106.722656 444.109375 C 106.53125 444.082031 106.339844 444.089844 106.144531 444.132812 C 106.511719 443.222656 106.808594 442.269531 107.492188 441.511719 C 107.851562 441.101562 107.257812 440.496094 106.890625 440.910156 C 105.578125 442.382812 104.070312 443.679688 102.296875 444.570312 C 102.003906 443.472656 100.90625 442.640625 99.847656 443.019531 C 100.011719 442.492188 100.082031 441.945312 99.96875 441.480469 C 99.980469 441.460938 99.996094 441.445312 100.007812 441.425781 C 101.109375 441.5 102.042969 440.28125 102.296875 439.300781 C 102.3125 439.238281 102.320312 439.179688 102.332031 439.117188 C 105.089844 436.984375 108.453125 436.414062 111.367188 434.519531 C 112.070312 434.0625 112.574219 433.582031 112.792969 432.746094 C 112.894531 432.351562 112.871094 431.773438 112.8125 431.390625 C 112.796875 431.253906 112.773438 431.117188 112.753906 430.984375 C 113.339844 430.59375 113.800781 429.964844 113.976562 429.296875 C 117.773438 427.265625 121.746094 425.707031 125.882812 424.09375 C 126.035156 424.035156 125.976562 423.816406 125.8125 423.847656 C 124.566406 424.082031 123.320312 424.410156 122.082031 424.808594 C 122.0625 424.769531 122.023438 424.738281 121.96875 424.75 C 119.109375 425.410156 116.359375 426.40625 113.769531 427.722656 C 113.589844 427.449219 113.324219 427.199219 112.953125 426.996094 C 111.019531 425.933594 109.9375 427.664062 110.136719 429.035156 C 109.894531 429.332031 109.757812 429.699219 109.808594 430.066406 C 109.050781 430.585938 108.308594 431.136719 107.589844 431.71875 C 106.734375 431.515625 105.808594 431.800781 105.648438 432.882812 C 105.398438 432.886719 105.144531 432.929688 104.898438 433.011719 C 104.867188 432.902344 104.828125 432.796875 104.773438 432.695312 C 104 431.347656 102.917969 432.304688 102.410156 433.265625 C 101.921875 434.1875 101.945312 434.929688 102.269531 435.464844 C 101.828125 435.519531 101.449219 435.546875 101.121094 435.539062 C 101.265625 434.507812 101.039062 433.414062 100.390625 432.453125 C 100.308594 432.332031 100.167969 432.320312 100.058594 432.410156 C 98.480469 433.707031 99.179688 435.484375 100.558594 436.183594 C 100.527344 436.273438 100.496094 436.367188 100.460938 436.453125 C 99.738281 436.367188 99.023438 436.636719 98.710938 437.296875 C 98.726562 437.171875 98.734375 437.039062 98.742188 436.90625 C 99.175781 435.871094 99.328125 434.808594 98.964844 434.0625 C 98.945312 433.925781 98.917969 433.789062 98.882812 433.65625 C 99.203125 433.171875 99.40625 432.585938 99.464844 432.117188 C 99.476562 432.011719 99.484375 431.910156 99.488281 431.8125 C 99.320312 432.1875 99.09375 432.484375 98.808594 432.703125 C 98.867188 432.273438 98.953125 431.84375 99.066406 431.414062 C 99.195312 431.34375 99.320312 431.265625 99.429688 431.175781 C 99.390625 431.015625 99.339844 430.863281 99.273438 430.730469 C 99.308594 430.625 99.34375 430.519531 99.382812 430.417969 C 99.605469 430.378906 99.824219 430.316406 100.035156 430.230469 C 100.09375 429.964844 100.078125 429.660156 99.984375 429.320312 C 100.105469 429.164062 100.238281 429.023438 100.394531 428.898438 C 101.242188 428.464844 101.191406 428.878906 100.246094 430.136719 C 101.386719 429.597656 102.226562 428.496094 101.679688 427.691406 C 100.976562 426.65625 99.992188 427.882812 99.5625 428.554688 C 98.875 427.847656 97.671875 428.011719 97.050781 428.910156 C 96.976562 429.019531 97 429.160156 97.050781 429.269531 C 97.140625 429.453125 97.242188 429.613281 97.351562 429.75 C 96.898438 429.839844 96.523438 430.128906 96.414062 430.605469 C 95.921875 430.242188 95.3125 430.0625 94.695312 430.046875 C 94.605469 429.945312 94.511719 429.847656 94.402344 429.746094 C 93.8125 429.226562 93.222656 429.0625 92.675781 429.136719 C 94.453125 426.117188 96.492188 423.253906 98.804688 420.582031 C 98.8125 420.570312 98.824219 420.558594 98.835938 420.546875 C 98.863281 420.597656 98.890625 420.652344 98.921875 420.703125 C 99.128906 421.019531 99.636719 420.726562 99.429688 420.410156 C 99.355469 420.296875 99.3125 420.175781 99.28125 420.054688 C 99.332031 419.992188 99.390625 419.933594 99.441406 419.871094 C 99.410156 420.015625 99.40625 420.167969 99.445312 420.300781 C 99.585938 420.785156 100.136719 420.949219 100.585938 420.828125 C 100.648438 420.8125 100.703125 420.789062 100.761719 420.761719 C 101.257812 420.679688 101.652344 420.25 101.753906 419.757812 C 101.875 419.171875 101.539062 418.597656 101.035156 418.308594 C 101.003906 418.292969 100.96875 418.28125 100.9375 418.265625 C 102.335938 416.820312 103.804688 415.445312 105.351562 414.160156 C 106.710938 413.03125 108.121094 411.972656 109.582031 410.980469 C 110.214844 410.554688 110.859375 410.144531 111.507812 409.734375 C 111.78125 409.558594 111.996094 409.386719 112.136719 409.25 C 112.464844 409.074219 112.800781 408.898438 113.128906 408.714844 C 113.332031 408.605469 113.152344 408.296875 112.949219 408.40625 C 108.238281 410.914062 103.964844 414.234375 100.253906 418.113281 C 99.804688 418.121094 99.355469 418.316406 99.042969 418.65625 C 98.730469 418.996094 98.605469 419.441406 98.640625 419.878906 C 96.085938 422.800781 93.839844 425.992188 91.960938 429.378906 C 91.179688 429.808594 90.574219 430.710938 90.34375 431.652344 C 90.296875 431.691406 90.246094 431.734375 90.199219 431.777344 C 90.195312 431.730469 90.1875 431.679688 90.183594 431.632812 C 90.214844 431.300781 90.191406 430.945312 90.125 430.601562 C 90.261719 430.3125 90.398438 430.019531 90.539062 429.734375 C 90.894531 429.527344 91.078125 429.089844 91.148438 428.59375 C 91.230469 428.578125 91.3125 428.554688 91.402344 428.519531 C 92.3125 428.195312 92.855469 426.746094 92.90625 425.746094 C 93.121094 425.550781 93.308594 425.277344 93.425781 424.976562 C 93.851562 424.910156 94.273438 424.703125 94.503906 424.441406 C 94.992188 423.890625 94.980469 423.164062 94.648438 422.625 C 97.835938 417.871094 101.683594 413.5625 106.105469 409.851562 C 106.15625 409.8125 106.140625 409.757812 106.105469 409.726562 C 106.171875 409.71875 106.234375 409.707031 106.300781 409.691406 C 106.824219 409.863281 107.566406 409.675781 107.96875 409.265625 C 108.457031 409.21875 108.96875 409.003906 109.242188 408.746094 C 110.011719 408.015625 109.339844 406.839844 108.359375 406.820312 C 108.074219 406.816406 107.644531 406.996094 107.277344 407.265625 C 106.285156 406.808594 104.800781 407.601562 104.640625 408.671875 C 104.617188 408.832031 104.628906 408.980469 104.664062 409.117188 C 104.3125 409.53125 104.265625 410.160156 104.34375 410.675781 C 104.371094 410.878906 104.679688 410.820312 104.6875 410.628906 C 104.699219 410.21875 104.773438 409.898438 104.894531 409.566406 C 105.128906 409.832031 105.480469 409.957031 105.800781 409.867188 C 101.433594 413.542969 97.648438 417.773438 94.523438 422.449219 C 94.292969 422.167969 93.96875 421.960938 93.574219 421.886719 C 93.335938 421.84375 93.136719 422.195312 93.394531 422.316406 C 94.042969 422.511719 93.992188 422.933594 93.25 423.574219 C 93.234375 423.5625 93.222656 423.546875 93.207031 423.535156 C 92.648438 423.09375 92.015625 423.597656 92.125 424.230469 C 91.785156 424.070312 91.410156 424.144531 91.164062 424.6875 C 90.828125 425.4375 91.472656 426.046875 92.171875 426.039062 C 92.171875 426.058594 92.171875 426.078125 92.175781 426.101562 C 92.140625 426.214844 92.105469 426.332031 92.074219 426.445312 C 91.925781 426.710938 91.777344 426.96875 91.632812 427.234375 C 91.488281 427.253906 91.304688 427.203125 91.085938 427.074219 C 91.046875 426.90625 91.003906 426.757812 90.957031 426.648438 C 90.84375 426.386719 90.480469 426.453125 90.351562 426.648438 C 90.128906 426.984375 90.023438 427.394531 90.046875 427.753906 C 89.980469 427.746094 89.910156 427.757812 89.847656 427.789062 C 89.460938 427.964844 89.25 428.484375 89.269531 428.957031 C 88.992188 428.707031 88.664062 428.554688 88.292969 428.558594 C 87.839844 427.71875 87.148438 427.015625 86.320312 426.796875 C 85.40625 425.589844 83.316406 425.019531 82.367188 426.433594 C 82.359375 426.441406 82.355469 426.453125 82.351562 426.460938 C 82.226562 426.503906 82.113281 426.566406 82.003906 426.632812 C 83.027344 424.386719 84.1875 422.199219 85.460938 420.078125 C 87.652344 416.421875 90.175781 412.976562 92.910156 409.703125 C 93.476562 409.023438 94.054688 408.351562 94.640625 407.6875 C 94.796875 407.507812 95.066406 407.203125 95.300781 406.929688 C 95.671875 406.523438 96.046875 406.117188 96.417969 405.714844 C 96.5625 405.558594 96.328125 405.324219 96.183594 405.480469 C 95.457031 406.269531 94.726562 407.078125 94.007812 407.902344 C 93.71875 408.214844 93.441406 408.539062 93.164062 408.871094 C 87.644531 415.324219 82.542969 422.804688 79.664062 430.894531 C 79.65625 430.28125 79.605469 429.675781 79.492188 429.082031 C 79.066406 426.8125 77.699219 424.839844 75.5625 424.117188 C 78.277344 416.503906 80.433594 408.695312 81.976562 400.753906 C 82.023438 400.511719 81.703125 400.429688 81.613281 400.652344 C 79.117188 407.078125 76.675781 413.558594 74.523438 420.125 C 74.554688 419.472656 74.429688 418.839844 74.097656 418.390625 C 74.015625 417.859375 73.664062 417.382812 72.980469 417.15625 C 72.726562 417.074219 72.46875 417.066406 72.222656 417.109375 C 72.503906 415.871094 72.835938 414.648438 73.210938 413.4375 C 75.117188 407.335938 78.238281 401.703125 82.207031 396.710938 C 82.328125 396.558594 82.144531 396.363281 81.996094 396.496094 C 77.421875 400.554688 74.625 405.996094 72.796875 411.761719 C 72.183594 413.703125 71.609375 415.710938 71.164062 417.746094 C 71.074219 417.855469 70.996094 417.972656 70.9375 418.101562 C 70.855469 418.144531 70.773438 418.1875 70.703125 418.246094 C 70.175781 418.648438 69.785156 419.53125 69.78125 420.328125 C 69.511719 420.585938 69.273438 420.90625 69.105469 421.226562 C 67.5625 421.730469 68.019531 424.050781 68.539062 425.277344 C 67.839844 425.753906 67.265625 426.34375 66.921875 427.054688 C 66.730469 427.019531 66.515625 427.101562 66.464844 427.328125 C 66.460938 427.324219 66.460938 427.324219 66.460938 427.324219 C 66.339844 428.003906 66.21875 428.695312 66.101562 429.386719 C 66.105469 429.117188 66.101562 428.847656 66.109375 428.578125 C 66.136719 427.410156 66.191406 426.242188 66.265625 425.078125 C 66.867188 424.59375 67.648438 423.4375 67.921875 422.410156 C 68.484375 421.355469 68.523438 419.601562 67.9375 418.972656 C 67.886719 418.917969 67.835938 418.875 67.785156 418.832031 C 68.445312 417.753906 68.933594 416.429688 68.53125 415.542969 C 69.3125 414.511719 69.820312 412.75 69.445312 412.183594 C 69.4375 412.171875 69.429688 412.167969 69.425781 412.15625 C 69.796875 411.203125 69.875 410.355469 68.835938 410.625 C 68.621094 410.679688 68.660156 411.027344 68.890625 411.015625 C 69.519531 410.980469 69.46875 411.410156 69.207031 411.929688 C 68.894531 411.679688 68.488281 411.660156 68.101562 411.859375 C 69.503906 405.492188 71.601562 399.402344 74.015625 393.289062 C 74.117188 393.03125 73.675781 392.84375 73.5625 393.101562 C 73.433594 393.398438 73.308594 393.699219 73.179688 393.996094 C 72.8125 394.21875 72.503906 395.375 72.425781 395.554688 C 71.605469 397.476562 70.859375 399.433594 70.179688 401.410156 C 69.796875 402.523438 69.441406 403.644531 69.101562 404.769531 C 68.011719 408.214844 67.121094 411.722656 66.496094 415.382812 C 66.292969 416.574219 66.085938 417.792969 65.894531 419.027344 C 65.761719 419.246094 65.707031 419.511719 65.777344 419.796875 C 65.734375 420.085938 65.691406 420.371094 65.648438 420.664062 C 65.574219 420.4375 65.46875 420.210938 65.335938 419.992188 C 65.855469 419.394531 65.75 418.425781 65.421875 417.503906 C 65.4375 417.347656 65.453125 417.1875 65.46875 417.027344 C 66.101562 415.816406 66.242188 414.515625 65.898438 413.261719 C 65.972656 412.71875 66.054688 412.175781 66.140625 411.632812 C 66.199219 411.390625 66.238281 411.148438 66.261719 410.90625 C 66.269531 410.84375 66.285156 410.78125 66.292969 410.71875 C 66.460938 409.945312 66.640625 409.179688 66.832031 408.410156 C 67.566406 407.460938 67.875 406.320312 67.71875 405.179688 C 68.144531 403.769531 68.609375 402.367188 69.121094 400.972656 C 69.132812 400.945312 69.085938 400.933594 69.078125 400.960938 C 68.902344 401.390625 68.734375 401.820312 68.566406 402.253906 C 68.640625 402.046875 68.710938 401.839844 68.789062 401.632812 C 68.539062 402.257812 68.316406 402.890625 68.101562 403.527344 C 67.949219 403.957031 67.800781 404.390625 67.65625 404.824219 C 67.546875 404.328125 67.351562 403.839844 67.0625 403.371094 C 66.976562 403.234375 66.753906 403.183594 66.636719 403.316406 C 66.109375 403.929688 66.140625 403.832031 66.085938 404.65625 C 66.066406 405.019531 66.632812 405.019531 66.648438 404.65625 C 66.804688 404.652344 66.960938 404.644531 67.117188 404.636719 C 67.296875 405.15625 67.328125 405.675781 67.222656 406.191406 C 67.109375 406.5625 67 406.933594 66.894531 407.308594 C 66.558594 408.117188 66.011719 408.835938 65.421875 407.554688 C 65.207031 407.199219 64.691406 407.511719 64.871094 407.878906 C 65.113281 408.367188 65.144531 408.484375 65.261719 408.609375 C 65.507812 409.175781 65.636719 409.777344 65.628906 410.417969 C 65.886719 411.269531 65.753906 411.714844 65.242188 411.773438 C 65.179688 411.671875 65.117188 411.570312 65.046875 411.472656 C 64.851562 411.199219 64.410156 411.214844 64.3125 411.570312 C 64.074219 412.414062 64.1875 412.847656 64.878906 413.398438 C 64.933594 413.441406 64.996094 413.46875 65.058594 413.484375 C 65.28125 414.40625 65.203125 415.351562 64.835938 416.246094 C 64.636719 415.90625 64.433594 415.617188 64.261719 415.425781 C 64 415.128906 63.484375 415.363281 63.492188 415.742188 C 63.511719 416.664062 63.6875 417.113281 64.386719 417.761719 C 64.46875 417.839844 64.558594 417.867188 64.652344 417.878906 C 64.722656 418.257812 64.710938 418.652344 64.621094 419.058594 C 64.40625 418.828125 64.195312 418.640625 64.023438 418.519531 C 63.863281 418.402344 63.640625 418.46875 63.503906 418.585938 C 62.914062 419.097656 62.949219 419.855469 63.390625 420.257812 C 63.347656 420.316406 63.320312 420.382812 63.324219 420.453125 C 63.339844 421.203125 63.714844 422.4375 64.554688 422.433594 C 64.546875 422.605469 64.546875 422.773438 64.542969 422.945312 C 64.367188 422.679688 64.195312 422.445312 64.042969 422.273438 C 63.929688 422.144531 63.695312 422.148438 63.582031 422.273438 C 62.875 423.046875 63.414062 424.367188 64.523438 424.21875 C 64.519531 424.605469 64.519531 424.988281 64.523438 425.375 C 64.523438 425.417969 64.527344 425.496094 64.53125 425.605469 C 64.40625 425.722656 64.269531 425.839844 64.113281 425.945312 C 63.980469 425.820312 63.855469 425.710938 63.738281 425.625 C 63.53125 425.46875 63.203125 425.632812 63.148438 425.863281 C 63.042969 426.316406 63.199219 426.761719 63.496094 427.03125 C 63.578125 427.394531 63.660156 427.753906 63.742188 428.117188 C 63.738281 428.109375 63.730469 428.101562 63.726562 428.09375 C 63.523438 427.886719 63.175781 427.996094 63.097656 428.261719 C 62.878906 429 63.398438 429.757812 64.109375 429.757812 C 64.316406 430.1875 64.417969 430.667969 64.421875 431.207031 C 64.304688 431.164062 64.210938 431.132812 64.128906 431.113281 C 64.027344 430.875 63.925781 430.640625 63.824219 430.40625 C 63.734375 430.203125 63.40625 430.308594 63.414062 430.515625 C 63.457031 431.394531 63.667969 431.726562 64.476562 432.078125 C 64.472656 432.683594 64.480469 433.285156 64.484375 433.890625 C 64.074219 433.726562 63.625 433.773438 63.328125 434.222656 C 63.308594 434.257812 63.292969 434.292969 63.277344 434.328125 C 63.253906 434.3125 63.230469 434.300781 63.210938 434.285156 C 62.335938 429.953125 61.097656 425.710938 59.433594 421.613281 C 59.292969 421.265625 58.78125 421.296875 58.757812 421.707031 C 58.753906 421.804688 58.753906 421.898438 58.75 421.996094 C 58.425781 421.859375 58.011719 422.09375 58.089844 422.558594 C 58.351562 424.082031 58.773438 425.597656 59.277344 427.105469 C 59.308594 427.238281 59.339844 427.367188 59.371094 427.5 C 58.398438 425.476562 57.46875 423.011719 55.734375 421.546875 C 55.570312 421.410156 55.328125 421.5 55.316406 421.722656 C 55.199219 424.0625 56.777344 426.867188 57.8125 428.933594 C 58.492188 430.296875 59.265625 431.617188 60.101562 432.894531 C 60.300781 433.195312 61.039062 434.007812 61.628906 434.84375 C 61.480469 435.011719 61.355469 435.214844 61.273438 435.429688 C 61.265625 435.449219 61.261719 435.472656 61.253906 435.492188 C 61.175781 435.40625 61.089844 435.328125 61 435.269531 C 61.011719 435.226562 61.003906 435.183594 60.976562 435.144531 C 60.898438 435.019531 60.816406 434.898438 60.738281 434.777344 C 60.519531 434.382812 60.296875 433.992188 60.042969 433.632812 C 59.953125 433.460938 59.75 433.449219 59.601562 433.53125 C 59.558594 433.296875 59.511719 433.0625 59.453125 432.832031 C 59.21875 431.871094 58.617188 429.992188 57.464844 429.742188 C 56.5 429.535156 56.207031 430.328125 56.300781 431.34375 C 56.113281 431.5 55.980469 431.726562 55.902344 431.996094 C 55.589844 431.96875 55.269531 432.023438 54.941406 432.207031 C 54.882812 432.238281 54.835938 432.273438 54.785156 432.308594 C 54.222656 431.855469 53.542969 431.632812 52.867188 431.894531 C 52.757812 431.9375 52.667969 431.996094 52.585938 432.058594 C 52.109375 432 51.601562 432.042969 51.296875 432.121094 C 49.144531 432.679688 49.574219 435.023438 50.875 436.226562 C 50.832031 436.261719 50.800781 436.308594 50.785156 436.371094 C 50.773438 436.429688 50.761719 436.488281 50.753906 436.550781 C 50.585938 436.449219 50.417969 436.347656 50.253906 436.246094 C 50.246094 436.171875 50.242188 436.097656 50.230469 436.03125 C 50.191406 435.808594 49.882812 435.789062 49.761719 435.949219 C 49.496094 435.789062 49.230469 435.632812 48.96875 435.472656 C 48.96875 435.445312 48.96875 435.421875 48.96875 435.398438 C 48.960938 435.121094 48.546875 435.050781 48.476562 435.332031 C 48.46875 435.355469 48.464844 435.390625 48.457031 435.414062 C 48.28125 435.714844 48.109375 435.957031 47.9375 436.136719 C 47.980469 435.609375 47.675781 435.121094 46.992188 435.035156 C 46.914062 435.023438 46.804688 435.085938 46.773438 435.15625 C 46.65625 435.429688 46.542969 435.855469 46.511719 436.289062 C 46.339844 436.144531 46.164062 435.941406 45.992188 435.679688 C 45.925781 435.503906 45.832031 435.3125 45.691406 435.101562 C 45.554688 434.894531 45.210938 434.964844 45.214844 435.230469 C 45.214844 435.28125 45.21875 435.339844 45.21875 435.398438 C 45.152344 435.488281 45.085938 435.582031 45.019531 435.675781 C 44.9375 435.519531 44.800781 435.371094 44.59375 435.242188 C 44.5 435.183594 44.367188 435.203125 44.289062 435.28125 C 43.542969 436.019531 43.707031 436.574219 44.164062 436.859375 C 44.039062 437.035156 43.910156 437.210938 43.785156 437.386719 C 44.0625 437.324219 44.332031 437.195312 44.554688 437.023438 C 44.914062 437.117188 45.328125 437.097656 45.636719 436.941406 C 45.683594 437.023438 45.742188 437.101562 45.800781 437.171875 C 45.015625 437.300781 44.238281 437.507812 43.484375 437.800781 C 43.585938 437.660156 43.683594 437.523438 43.785156 437.386719 C 43.632812 437.417969 43.476562 437.429688 43.324219 437.414062 C 43.21875 437.628906 43.078125 437.832031 42.921875 438.019531 C 42.90625 438.03125 42.890625 438.042969 42.875 438.054688 C 42.847656 438.066406 42.820312 438.078125 42.796875 438.09375 C 42.546875 437.378906 41.71875 436.878906 40.976562 437.011719 C 40.816406 437.039062 40.746094 437.226562 40.777344 437.367188 C 40.910156 438.042969 41.144531 438.417969 41.421875 438.585938 C 41.363281 438.613281 41.308594 438.640625 41.246094 438.679688 C 41.175781 438.71875 41.113281 438.808594 41.121094 438.890625 C 41.128906 438.929688 41.144531 438.960938 41.152344 438.996094 C 40.003906 439.738281 38.957031 440.664062 38.066406 441.742188 C 37.910156 441.929688 37.949219 442.242188 38.214844 442.308594 C 38.339844 442.339844 38.460938 442.371094 38.582031 442.402344 C 38.734375 442.441406 38.855469 442.277344 38.78125 442.144531 C 38.488281 441.609375 41.132812 439.75 41.363281 439.59375 C 41.394531 439.574219 41.425781 439.554688 41.457031 439.535156 C 41.484375 439.5625 41.511719 439.589844 41.542969 439.609375 C 40.972656 440.589844 40.660156 441.726562 40.503906 442.917969 C 40.40625 443.671875 39.878906 445.871094 41.128906 446.003906 C 41.214844 446.011719 41.230469 445.890625 41.167969 445.851562 C 40.128906 445.160156 40.878906 442.503906 41.066406 441.664062 C 41.222656 440.953125 41.453125 440.300781 41.78125 439.707031 C 42.109375 439.769531 42.480469 439.605469 42.714844 439.152344 C 42.785156 439.015625 42.824219 438.878906 42.847656 438.742188 C 43.613281 438.375 44.417969 438.085938 45.234375 437.910156 C 45.792969 437.789062 46.351562 437.71875 46.90625 437.6875 C 47.027344 437.792969 47.175781 437.871094 47.367188 437.90625 C 47.683594 437.960938 47.941406 437.875 48.15625 437.699219 C 48.691406 437.738281 49.226562 437.816406 49.761719 437.9375 C 49.957031 437.980469 50.144531 438.035156 50.332031 438.09375 C 50.226562 438.191406 50.132812 438.296875 50.046875 438.421875 C 49.699219 438.9375 49.632812 439.542969 49.777344 440.082031 C 49.636719 440.308594 49.523438 440.535156 49.421875 440.765625 C 49.308594 440.757812 49.195312 440.757812 49.078125 440.761719 C 48.53125 440.453125 47.925781 440.234375 47.265625 440.148438 C 45.242188 439.875 43.734375 440.984375 42.507812 442.480469 C 42.097656 442.980469 40.886719 444.28125 42.183594 444.496094 C 42.703125 444.578125 43.644531 443.398438 43.90625 443.179688 C 44.53125 442.65625 46.578125 441.425781 48.351562 441.066406 C 48.621094 441.1875 48.890625 441.339844 49.148438 441.507812 C 49.121094 441.613281 49.097656 441.714844 49.082031 441.8125 C 48.398438 441.496094 47.707031 441.296875 47.160156 441.445312 C 46.273438 441.679688 45.910156 442.621094 46.070312 443.476562 C 46.082031 443.539062 46.105469 443.59375 46.121094 443.652344 C 45.253906 443.859375 44.371094 444.652344 44.238281 445.667969 C 43.832031 448.742188 47.363281 448.144531 48.867188 446.796875 C 49.46875 446.257812 50.25 445.363281 50.277344 444.476562 C 50.445312 444.359375 50.609375 444.21875 50.769531 444.070312 C 50.792969 444.078125 50.8125 444.085938 50.832031 444.09375 C 50.699219 444.261719 50.570312 444.425781 50.441406 444.585938 C 50.273438 444.800781 50.203125 445.066406 50.347656 445.316406 C 52.804688 449.527344 55.113281 453.800781 57.109375 458.253906 C 58.402344 461.140625 59.433594 464.125 60.527344 467.085938 L 59.191406 469.132812 L 59.492188 471.152344 L 58.296875 471.152344 L 58.449219 472.941406 L 57.402344 472.941406 L 57.402344 474.132812 L 46.886719 483.890625 C 46.714844 484.023438 46.535156 484.15625 46.359375 484.292969 C 44.835938 485.476562 43.300781 486.648438 41.785156 487.84375 C 41.109375 488.378906 40.144531 488.921875 39.96875 489.863281 C 39.652344 491.585938 42.316406 493.605469 43.484375 494.421875 C 44.597656 495.195312 46.054688 495.21875 45.71875 496.660156 C 45.285156 498.5 44.082031 500.492188 43.339844 502.226562 C 43.265625 502.402344 43.273438 502.644531 43.472656 502.738281 C 45.445312 503.703125 47.285156 504.824219 49.039062 506.140625 C 49.234375 506.285156 49.488281 506.121094 49.554688 505.929688 C 50.089844 504.390625 50.734375 502.917969 51.480469 501.507812 C 52.6875 502.339844 53.941406 503.097656 55.261719 503.761719 C 55.414062 503.835938 55.636719 503.8125 55.722656 503.640625 C 56.210938 502.636719 56.726562 501.636719 57.203125 500.625 C 60.011719 503.089844 63.210938 505.175781 66.363281 507.140625 C 66.613281 507.296875 66.878906 507.085938 66.90625 506.828125 C 67.222656 503.757812 66.496094 500.746094 65.941406 497.738281 C 65.925781 497.664062 65.914062 497.59375 65.902344 497.523438 L 65.902344 488.59375 L 76.808594 471.085938 C 79.492188 471.292969 82.128906 469.796875 84.082031 467.953125 C 87.621094 464.609375 90.417969 460.636719 94.140625 457.4375 C 95.851562 455.96875 98.210938 454.808594 99.710938 453.160156 C 99.71875 453.152344 99.722656 453.144531 99.730469 453.136719 C 99.808594 453.308594 99.917969 453.472656 100.082031 453.613281 C 100.421875 453.902344 100.804688 453.976562 101.199219 453.914062 C 101.199219 453.914062 101.203125 453.917969 101.203125 453.917969 C 101.207031 453.917969 101.207031 453.914062 101.207031 453.914062 C 101.378906 453.886719 101.554688 453.835938 101.726562 453.761719 C 101.730469 453.828125 101.734375 453.890625 101.738281 453.964844 C 101.761719 454.042969 101.777344 454.105469 101.800781 454.175781 C 101.972656 454.210938 102.152344 454.210938 102.335938 454.171875 C 102.382812 454.195312 102.429688 454.210938 102.480469 454.230469 C 102.472656 454.238281 102.46875 454.25 102.460938 454.261719 C 102.261719 454.296875 102.0625 454.347656 101.867188 454.414062 C 102.242188 455.777344 102.179688 456.179688 101.664062 455.601562 C 101.367188 455.332031 101.183594 455.058594 101.105469 454.78125 C 100.820312 454.960938 100.578125 455.167969 100.421875 455.394531 C 99.140625 457.296875 101.292969 457.347656 102.464844 456.28125 C 103.007812 456.914062 104.027344 456.972656 104.328125 455.820312 C 104.574219 454.882812 104.183594 454.410156 103.566406 454.257812 C 103.863281 454.152344 104.140625 453.964844 104.382812 453.71875 C 104.75 454.4375 105.4375 454.90625 106.554688 454.824219 C 106.746094 454.8125 106.9375 454.632812 106.863281 454.421875 C 106.53125 453.464844 105.765625 453.015625 104.941406 452.964844 C 105.074219 452.722656 105.179688 452.464844 105.25 452.210938 C 105.335938 452.199219 105.417969 452.195312 105.507812 452.179688 C 106.703125 451.925781 107.050781 450.824219 106.683594 449.953125 C 107.414062 450 108.164062 450.074219 108.941406 450.160156 C 110.738281 450.359375 112.445312 450.398438 114.089844 449.824219 C 115.40625 450.039062 116.722656 450.347656 118.03125 450.734375 C 117.886719 450.871094 117.992188 451.195312 118.21875 451.167969 C 119.023438 451.074219 119.785156 451.035156 120.597656 451.046875 C 120.746094 451.046875 120.757812 450.847656 120.632812 450.796875 C 119.859375 450.503906 119.078125 450.253906 118.289062 450.027344 C 117.3125 449.699219 116.320312 449.421875 115.320312 449.207031 C 115.410156 449.011719 115.257812 448.746094 115.015625 448.726562 C 113.445312 448.578125 111.875 448.503906 110.304688 448.5 C 110.105469 448.472656 109.910156 448.445312 109.710938 448.421875 C 108.664062 448.289062 107.625 448.191406 106.601562 448.167969 C 114.808594 446.105469 123.015625 444.046875 131.226562 441.984375 C 131.347656 441.953125 131.3125 441.785156 131.195312 441.777344 "/>
<path fill="rgb(6.266785%, 5.734253%, 5.047607%)" fill-rule="nonzero" d="M 101.800781 454.175781 C 101.582031 454.136719 101.378906 454.042969 101.203125 453.917969 C 101.058594 454.210938 101.023438 454.496094 101.105469 454.78125 C 101.335938 454.636719 101.59375 454.511719 101.867188 454.414062 C 101.847656 454.339844 101.824219 454.257812 101.800781 454.175781 "/>
<path fill="rgb(6.266785%, 5.734253%, 5.047607%)" fill-rule="nonzero" d="M 176.957031 464.296875 C 176.957031 464.296875 159.21875 466.976562 156.683594 468.46875 C 154.148438 469.960938 140.507812 492.691406 136.78125 496.644531 C 136.78125 496.644531 138.421875 502.15625 142.96875 505.585938 L 138.945312 509.835938 C 144.832031 517.886719 161.824219 524.890625 161.824219 524.890625 C 161.824219 524.890625 159.886719 539.058594 157.652344 542 C 155.414062 544.941406 149.492188 547.289062 149.824219 550.753906 C 150.160156 554.21875 150.832031 558.804688 150.832031 558.804688 C 150.832031 558.804688 142.222656 572.070312 137.601562 591.152344 C 132.980469 610.234375 112.484375 706.492188 86.992188 731.3125 C 93.703125 739.699219 95.714844 740.371094 95.714844 740.371094 L 92.695312 750.433594 L 100.746094 754.121094 L 91.019531 779.613281 L 101.753906 784.644531 L 93.03125 801.75 L 260.398438 806.109375 L 250 753.785156 L 256.371094 749.425781 C 241.28125 722.257812 236.285156 668.257812 236.285156 668.257812 L 241.949219 664.566406 C 234.570312 648.132812 235.242188 613.921875 227.863281 593.464844 C 220.484375 573.003906 213.777344 563.277344 215.453125 555.5625 C 217.128906 547.847656 223.914062 534.207031 223.914062 534.207031 L 234.347656 531.523438 L 234.496094 529.4375 C 234.496094 529.4375 253.726562 525.414062 259.242188 522.730469 C 256.261719 515.128906 251.640625 487.402344 245.976562 480.992188 C 240.3125 474.582031 232.503906 473.445312 232.503906 473.445312 L 176.957031 464.296875 "/>
<path fill="rgb(6.266785%, 5.734253%, 5.047607%)" fill-rule="nonzero" d="M 354.507812 446.640625 L 352.515625 448.902344 C 352.515625 448.902344 346.035156 445.101562 345.03125 445.996094 C 344.023438 446.890625 344.136719 449.796875 344.136719 449.796875 L 343.464844 450.355469 L 347.042969 454.71875 L 346.933594 459.023438 L 347.492188 460.195312 C 347.492188 460.195312 339.441406 468.132812 338.769531 469.585938 C 338.097656 471.039062 334.96875 483.898438 335.191406 488.59375 C 335.414062 493.289062 333.476562 514.753906 333.476562 514.753906 C 333.476562 514.753906 329.453125 543.152344 329.902344 548.667969 C 327.21875 554.480469 325.113281 570.582031 325.113281 570.582031 L 307.390625 591.375 L 307.605469 593.296875 L 307.390625 602.183594 L 318.980469 605.957031 C 318.980469 605.957031 318.273438 617.613281 318.980469 618.507812 C 319.6875 619.402344 320.957031 620.296875 320.957031 620.296875 L 322.671875 623.15625 C 324.011719 652.492188 336.402344 705.632812 339.21875 726.28125 C 340.558594 736.121094 342.1875 739.253906 342.1875 739.253906 L 341.007812 747.523438 L 343.914062 750.65625 L 343.914062 752.667969 C 343.914062 752.667969 349.949219 787.996094 348.609375 801.636719 L 422.621094 802.976562 C 421.28125 760.71875 410.324219 738.355469 410.324219 738.355469 L 410.992188 733.4375 L 409.652344 730.308594 L 408.757812 724.71875 C 408.757812 724.71875 410.992188 686.703125 410.324219 661.886719 C 409.652344 637.066406 408.757812 615.824219 408.757812 615.824219 L 420.832031 616.046875 L 419.492188 609.488281 L 423.21875 615.746094 L 425.007812 615.746094 C 425.007812 615.746094 425.007812 611.128906 423.515625 606.804688 C 422.023438 602.480469 412.035156 572.964844 410.84375 561.339844 C 409.652344 549.710938 409.652344 549.710938 409.652344 549.710938 C 409.652344 549.710938 424.113281 498.28125 421.128906 478.007812 C 418.148438 457.734375 414.167969 454.648438 409.203125 447.746094 C 406.148438 443.5 392.136719 437.761719 392.136719 437.761719 C 392.136719 437.761719 387.664062 430.007812 386.769531 429.636719 C 385.875 429.265625 384.3125 430.234375 384.3125 430.234375 L 381.738281 426.320312 L 379.914062 426.824219 L 366.90625 428.855469 L 354.507812 446.640625 "/>
<path fill="rgb(100%, 100%, 100%)" fill-rule="nonzero" d="M 194.769531 419.332031 C 191.863281 420.953125 185.769531 422.855469 185.769531 422.855469 C 185.769531 422.855469 180.460938 431.464844 180.460938 431.628906 C 180.460938 431.796875 178.445312 450.746094 178.445312 450.914062 C 178.445312 451.085938 169.28125 474.339844 169.28125 474.339844 L 168.609375 485.128906 C 174.703125 486.914062 187.78125 498.710938 187.78125 498.710938 C 201.644531 490.492188 219.476562 492.730469 219.476562 492.730469 C 219.476562 492.730469 226.019531 478.308594 232.503906 473.445312 L 221.882812 468.355469 C 221.882812 468.355469 215.957031 444.433594 216.125 443.929688 C 216.292969 443.425781 207.964844 419.332031 207.964844 419.332031 L 194.769531 419.332031 "/>
<path fill="rgb(100%, 100%, 100%)" fill-rule="nonzero" d="M 329.882812 395.128906 C 329.882812 395.128906 326.910156 401.246094 327.757812 404.742188 C 327.980469 405.664062 329.65625 407.59375 329.882812 408.824219 C 330.105469 410.054688 324.417969 418.675781 325.1875 420.617188 C 325.605469 421.679688 330.355469 421.960938 330.355469 421.960938 C 330.71875 422.464844 329.882812 423.746094 330.21875 424.335938 C 330.554688 424.921875 331.027344 425.230469 331.53125 425.230469 C 330.746094 426.347656 331.027344 427.464844 331.027344 427.464844 C 331.417969 428.722656 332.117188 428.386719 332.621094 429.226562 C 333.125 430.066406 333.460938 431.042969 333.515625 432.300781 C 333.570312 433.558594 332.289062 436.21875 333.515625 437.976562 C 336.171875 441.777344 347.023438 437.132812 348.246094 437.976562 C 349.417969 438.785156 354.507812 446.640625 354.507812 446.640625 C 354.507812 446.640625 369.179688 431.40625 379.914062 426.824219 L 363.8125 384.394531 L 329.882812 395.128906 "/>
<path fill="rgb(100%, 100%, 100%)" fill-rule="nonzero" d="M 138.871094 495.414062 C 135.011719 499.269531 129.589844 508.269531 123.71875 512.519531 C 118.632812 507.933594 112.539062 506.816406 108.234375 502.792969 C 103.933594 498.765625 91.710938 489.199219 86.660156 483.730469 C 83.976562 480.824219 78.90625 477.488281 76.632812 475.511719 C 74.359375 473.535156 72.945312 473.386719 70.78125 472.382812 C 68.621094 471.375 67.894531 471.28125 66.515625 470.089844 C 65.136719 468.898438 64.316406 468.972656 63.945312 469.492188 C 63.570312 470.015625 63.90625 472.625 66.011719 474.1875 C 68.117188 475.753906 69.777344 476.386719 70.261719 477.058594 L 67.09375 481.289062 L 65.902344 488.59375 C 70 491.203125 72.496094 490.679688 76.113281 492.207031 C 79.726562 493.734375 81.738281 495.113281 83.902344 497.761719 C 86.0625 500.40625 96.105469 513.636719 100.074219 517.101562 C 104.042969 520.566406 115.28125 529.289062 117.011719 531.023438 C 118.746094 532.753906 119.304688 533.59375 122.097656 533.480469 C 124.894531 533.371094 146.414062 520.457031 153.066406 513.414062 C 159.71875 506.371094 138.871094 495.414062 138.871094 495.414062 "/>
<path fill="rgb(100%, 100%, 100%)" fill-rule="nonzero" d="M 236.285156 520.195312 C 236.285156 520.195312 241.800781 535.109375 245.824219 542 C 249.851562 548.890625 248.722656 550.605469 252.269531 556.417969 C 255.8125 562.234375 263.191406 573.375 275.15625 585.488281 C 280.050781 590.441406 291.003906 602.714844 292.410156 606.507812 C 293.210938 608.667969 295.28125 613.085938 297.515625 615.039062 C 299.753906 616.996094 302.601562 618.339844 303.523438 619.402344 C 304.445312 620.464844 307.941406 623.984375 309.394531 622.976562 C 310.652344 622.027344 307.941406 618.144531 307.632812 617.835938 C 310.484375 618.003906 312.441406 618.675781 312.691406 616.355469 C 313.726562 616.214844 313.976562 614.285156 313.976562 614.285156 C 315.710938 613.753906 315.179688 610.960938 315.179688 610.960938 C 315.179688 610.960938 316.269531 609.3125 316.242188 608.78125 L 318.980469 605.957031 C 314.398438 604.140625 308.023438 597.375 307.605469 593.296875 C 304.53125 594.914062 300.199219 596.230469 300.199219 596.230469 C 298.242188 594.777344 293.910156 591.339844 293.070312 590.164062 C 292.234375 588.992188 274.035156 554.722656 269.175781 547.792969 C 264.3125 540.859375 263.917969 541.53125 262.578125 537.898438 C 261.234375 534.265625 254.753906 514.753906 254.753906 514.753906 L 236.285156 520.195312 "/>
<path fill="rgb(100%, 100%, 100%)" fill-rule="nonzero" d="M 347.128906 613.195312 C 347.128906 613.195312 344.410156 617.648438 343.492188 619.402344 C 342.851562 620.628906 342.878906 625.242188 342.710938 626.945312 C 342.542969 628.652344 341.816406 632.675781 342.433594 634.355469 C 343.046875 636.03125 345.386719 638.15625 346.539062 639.21875 C 347.210938 639.832031 350.175781 640.894531 351.011719 640.585938 C 351.851562 640.28125 351.515625 638.433594 351.515625 638.433594 C 353.109375 638.574219 353.808594 637.566406 353.808594 637.566406 C 355.847656 639.246094 359.035156 639.328125 360.011719 637.261719 C 361.4375 638.238281 364.457031 638.910156 365.378906 636.953125 C 366.300781 634.996094 366.292969 633.269531 365.796875 632.59375 C 365.492188 632.175781 365.183594 632.175781 365.183594 632.175781 L 365.238281 629.855469 C 367.894531 628.625 368.566406 623.15625 368.566406 623.15625 C 368.566406 623.15625 359.117188 621.1875 347.128906 613.195312 "/>
<path fill="rgb(6.266785%, 5.734253%, 5.047607%)" fill-rule="nonzero" d="M 228.90625 468.34375 C 227.304688 467.296875 225.535156 466.660156 224.378906 465.042969 C 224.628906 462.34375 224.84375 459.273438 222.53125 457.683594 C 222.546875 457.628906 222.558594 457.570312 222.574219 457.515625 C 224.042969 458.171875 225.050781 459.359375 225.082031 461.273438 C 225.097656 462.066406 224.765625 462.957031 224.78125 463.769531 C 224.792969 464.453125 224.773438 464.949219 225.308594 465.433594 C 225.59375 465.691406 225.96875 465.761719 226.320312 465.871094 C 227.953125 466.386719 229.226562 466.882812 229.785156 468.726562 C 229.816406 468.839844 229.847656 468.953125 229.878906 469.066406 C 229.574219 468.8125 229.253906 468.566406 228.90625 468.34375 Z M 217.988281 433.394531 C 216.574219 430.285156 215.515625 427.054688 214.328125 423.855469 C 212.457031 418.8125 210.128906 414.324219 205.925781 410.9375 C 207.542969 411.964844 209.066406 413.082031 210.347656 414.589844 C 213.914062 418.777344 215.46875 424.195312 217.304688 429.273438 C 218.070312 431.382812 218.886719 433.488281 219.933594 435.476562 C 221.09375 437.675781 222.65625 439.390625 224.078125 441.390625 C 227.210938 445.789062 223.996094 450.75 222.484375 455.535156 C 222.699219 453.828125 223.015625 452.117188 223.121094 450.324219 C 223.292969 447.496094 222.695312 444.714844 221.769531 442.058594 C 220.730469 439.078125 219.289062 436.261719 217.988281 433.394531 Z M 175.851562 413.394531 C 174.890625 414.691406 174.148438 416.074219 173.546875 417.515625 C 173.410156 417.765625 173.273438 418.015625 173.144531 418.269531 C 174.210938 412.316406 181.035156 404.507812 187.582031 405.355469 C 183.019531 405.292969 178.277344 410.128906 175.851562 413.394531 Z M 166.398438 462.089844 C 166.671875 461.070312 167.195312 460.160156 167.730469 459.25 C 167.585938 459.886719 167.5625 460.546875 167.808594 461.160156 C 168.097656 461.898438 168.605469 462.09375 169.101562 462.660156 C 169.75 463.390625 169.84375 464.089844 169.914062 464.914062 C 169.789062 465.328125 169.613281 465.742188 169.421875 466.144531 C 167.695312 465.253906 165.78125 464.417969 166.398438 462.089844 Z M 169.359375 455.058594 C 169.339844 455.179688 169.316406 455.304688 169.285156 455.433594 C 169.304688 455.296875 169.316406 455.164062 169.320312 455.03125 C 169.335938 455.039062 169.347656 455.050781 169.359375 455.058594 Z M 168.070312 453.726562 C 167.65625 453.539062 167.222656 453.402344 166.800781 453.234375 C 165.082031 452.546875 164.652344 452.4375 164.367188 450.570312 C 164.054688 448.492188 165.066406 447.09375 166.066406 445.335938 C 166.425781 444.703125 166.789062 444.074219 167.136719 443.4375 C 166.984375 443.796875 166.835938 444.160156 166.699219 444.53125 C 166.46875 445.171875 166.316406 445.773438 166.234375 446.351562 C 165.960938 447.617188 165.96875 448.867188 166.714844 450.113281 C 167.507812 451.433594 168.523438 452.285156 168.890625 453.839844 C 168.914062 453.949219 168.933594 454.054688 168.949219 454.160156 C 168.664062 454.003906 168.367188 453.859375 168.070312 453.726562 Z M 169.300781 454.363281 C 169.234375 453.671875 169.011719 453.007812 168.601562 452.355469 C 168.144531 451.632812 167.511719 451.046875 167.050781 450.324219 C 166.652344 449.695312 166.417969 449.070312 166.308594 448.441406 C 166.542969 449.480469 167.085938 450.464844 167.953125 451.472656 C 168.816406 452.476562 169.375 453.324219 169.402344 454.421875 C 169.367188 454.402344 169.335938 454.382812 169.300781 454.363281 Z M 173.078125 418.699219 C 173.09375 418.664062 173.109375 418.636719 173.125 418.605469 C 173.105469 418.65625 173.089844 418.707031 173.070312 418.757812 C 173.074219 418.738281 173.078125 418.71875 173.078125 418.699219 Z M 169.660156 435.648438 C 170.386719 430.933594 170.34375 426.117188 171.90625 421.558594 C 172.226562 420.628906 172.59375 419.71875 173.011719 418.835938 C 173.011719 418.851562 173.023438 418.855469 173.035156 418.855469 C 171.425781 423.480469 171.121094 428.601562 170.316406 433.398438 C 169.988281 435.347656 169.582031 437.292969 168.960938 439.171875 C 168.84375 439.53125 168.707031 439.886719 168.5625 440.234375 C 169.074219 438.746094 169.421875 437.210938 169.660156 435.648438 Z M 230.410156 469.566406 C 230.21875 468.675781 229.980469 467.800781 229.445312 467.035156 C 228.453125 465.605469 226.738281 465.941406 225.78125 464.640625 C 224.570312 462.992188 225.96875 460.933594 225.105469 459.035156 C 224.566406 457.859375 223.695312 457.519531 222.636719 457.273438 C 223.28125 454.890625 224.0625 452.585938 224.824219 450.195312 C 225.601562 447.753906 226.304688 444.9375 225.152344 442.492188 C 224.042969 440.140625 221.8125 438.386719 220.511719 436.101562 C 218.78125 433.0625 217.664062 429.722656 216.5 426.4375 C 214.808594 421.675781 212.914062 416.6875 209.148438 413.144531 C 207.886719 411.960938 206.429688 411.050781 204.941406 410.183594 C 201.222656 407.457031 195.246094 403.742188 190.699219 406.273438 C 189.988281 405.832031 189.257812 405.570312 188.519531 405.445312 C 181.601562 403.570312 174.089844 412.070312 173.078125 418.398438 C 172.804688 418.941406 172.550781 419.496094 172.3125 420.066406 C 170.238281 425.054688 170.285156 430.339844 169.445312 435.589844 C 168.960938 438.621094 168.015625 441.375 166.492188 444.046875 C 165.496094 445.792969 163.964844 447.710938 163.625 449.742188 C 163.367188 451.28125 164.113281 452.308594 165.433594 453.039062 C 166.730469 453.757812 167.949219 454.226562 169.019531 454.851562 C 169.039062 455.71875 168.828125 456.511719 168.503906 457.28125 C 168.34375 457.574219 168.183594 457.863281 168.066406 458.171875 C 168.054688 458.199219 168.046875 458.222656 168.039062 458.246094 C 167.722656 458.84375 167.371094 459.433594 167.039062 460.042969 C 166.332031 461.335938 165.457031 463.125 166.199219 464.601562 C 166.773438 465.746094 168.046875 466.109375 169.234375 466.527344 C 168.941406 467.09375 168.636719 467.632812 168.410156 468.09375 C 167.6875 469.570312 166.953125 471.035156 166.257812 472.519531 C 164.90625 475.394531 163.722656 478.371094 163.3125 481.539062 C 162.5625 487.359375 165.449219 492.957031 168.800781 497.53125 C 171.992188 501.882812 176.621094 505.460938 182.175781 505.832031 C 183.78125 505.941406 186.164062 505.953125 187.382812 504.703125 C 187.617188 504.457031 187.8125 504.164062 187.976562 503.84375 C 188.167969 504.460938 188.609375 504.84375 189.5 504.695312 C 189.632812 504.675781 189.636719 504.445312 189.5 504.425781 C 188.769531 504.308594 188.472656 503.644531 188.441406 502.691406 C 188.6875 501.914062 188.863281 501.097656 189.078125 500.425781 C 189.679688 498.5625 190.285156 496.703125 190.625 494.769531 C 190.632812 494.734375 190.628906 494.699219 190.625 494.667969 C 191.09375 493.542969 191.488281 492.695312 191.628906 492.429688 C 192.539062 490.695312 194.847656 488.117188 193.734375 485.984375 C 193.457031 485.457031 193.042969 485.132812 192.574219 484.792969 C 190.953125 483.617188 189.457031 482.675781 189.339844 480.421875 C 189.195312 477.738281 190.484375 474.574219 192.203125 472.171875 C 191.457031 475.542969 191.804688 478.449219 195.007812 480.941406 C 196.765625 482.308594 197.957031 483.605469 197.976562 486 C 197.988281 487.679688 197.507812 489.328125 197.421875 491.003906 C 197.355469 492.273438 197.480469 493.484375 197.789062 494.644531 C 197.835938 496.015625 198.015625 497.386719 198.359375 498.753906 C 198.832031 500.617188 199.65625 503.605469 202.066406 503.707031 C 203.839844 503.78125 205.265625 501.855469 205.515625 500.257812 C 205.574219 499.878906 205.566406 499.519531 205.519531 499.164062 C 205.898438 499.484375 206.308594 499.777344 206.757812 500.019531 C 206.894531 500.09375 207.042969 499.914062 206.925781 499.796875 C 206.269531 499.152344 205.683594 498.496094 205.179688 497.824219 C 205.105469 497.613281 205.03125 497.398438 204.953125 497.183594 C 204.417969 495.675781 203.925781 494.050781 203.105469 492.660156 C 203.042969 491.96875 203.050781 491.246094 203.132812 490.476562 C 203.394531 488.007812 204.179688 485.535156 203.5 483.058594 C 203.066406 481.484375 202.09375 480.1875 200.546875 479.582031 C 199.71875 479.261719 198.765625 479.296875 197.957031 478.964844 C 195.09375 477.777344 195.46875 475.035156 195.878906 472.566406 C 196.695312 467.640625 196.980469 463.359375 193.195312 459.644531 C 190.523438 457.015625 187.511719 454.117188 185.683594 450.730469 C 183.703125 447.113281 184.035156 445.394531 183.589844 443.515625 C 183.144531 441.636719 182.035156 431.964844 183.589844 430.136719 C 185.144531 428.308594 185.144531 428.308594 185.144531 428.308594 C 186.523438 427.007812 188.019531 425.878906 189.308594 424.972656 C 191.234375 423.625 193.117188 422.195312 194.070312 420.171875 C 195.066406 421.070312 196.320312 421.464844 197.734375 421.796875 C 200.847656 422.523438 203.613281 423.46875 206.058594 425.628906 C 207.171875 426.605469 208.039062 427.691406 208.742188 428.851562 C 209.460938 433.171875 208.574219 437.667969 209.757812 441.917969 C 209.992188 442.757812 210.3125 443.605469 210.710938 444.4375 C 210.59375 446.925781 210.34375 449.363281 208.988281 451.625 C 207.097656 454.789062 205.023438 459.421875 201.246094 460.550781 C 201.230469 460.554688 201.238281 460.574219 201.25 460.570312 C 204.269531 459.976562 206.136719 457.449219 207.789062 454.96875 C 208.902344 453.9375 210.074219 452.964844 211.289062 452.054688 C 212.21875 453.898438 212.609375 456.003906 212.140625 458.054688 C 211.675781 460.101562 210.144531 461.667969 209.675781 463.675781 C 209.03125 466.425781 210.921875 467.574219 213.3125 468.019531 C 214.246094 468.195312 215.117188 468.273438 215.941406 468.785156 C 217.230469 469.589844 217.273438 470.761719 217.722656 472.066406 C 218.035156 472.976562 218.480469 473.667969 219.4375 473.976562 C 220.636719 474.363281 221.804688 473.863281 222.847656 473.300781 C 224.792969 472.246094 226.519531 471.742188 228.484375 471.429688 C 229.238281 471.894531 230 472.28125 230.816406 472.609375 C 230.910156 472.820312 231.015625 473.027344 231.140625 473.230469 C 231.273438 473.449219 231.617188 473.25 231.484375 473.03125 C 231.441406 472.960938 231.402344 472.886719 231.363281 472.8125 C 231.476562 472.855469 231.585938 472.898438 231.703125 472.9375 C 231.796875 472.96875 231.910156 472.886719 231.902344 472.785156 C 231.8125 471.476562 231.246094 470.433594 230.410156 469.566406 "/>
<path fill="rgb(6.266785%, 5.734253%, 5.047607%)" fill-rule="nonzero" d="M 366.945312 375.898438 C 365.230469 373.886719 355.078125 373.511719 352.515625 373.289062 C 349.949219 373.066406 337.054688 377.460938 334.597656 379.921875 C 332.136719 382.382812 324.609375 390.132812 324.609375 393.5625 C 324.609375 396.992188 325.578125 400.34375 328.632812 401.761719 L 328.558594 401.015625 L 329.601562 401.761719 L 329.675781 401.164062 C 329.675781 401.164062 333.476562 399.898438 334.222656 400.269531 C 334.96875 400.644531 337.726562 400.566406 337.726562 400.566406 L 338.546875 401.761719 L 339.886719 401.761719 L 339.664062 403.921875 L 340.484375 402.433594 C 340.484375 402.433594 341.527344 407.796875 342.945312 408.691406 C 344.359375 409.585938 350.175781 408.246094 350.621094 407.722656 C 351.066406 407.203125 353.675781 401.464844 355.914062 402.953125 C 358.148438 404.445312 357.554688 408.542969 357.628906 410.035156 C 357.703125 411.523438 355.167969 414.953125 355.167969 414.953125 C 356.585938 417.636719 359.640625 418.382812 360.832031 418.007812 C 360.832031 418.007812 360.085938 419.425781 359.265625 419.945312 C 359.265625 419.945312 361.800781 420.171875 362.324219 419.648438 C 362.84375 419.128906 362.472656 421.8125 361.355469 422.332031 C 361.355469 422.332031 363.292969 422.40625 363.964844 421.960938 L 363.589844 423.003906 C 363.589844 423.003906 369.03125 427.699219 371.492188 427.175781 C 373.949219 426.65625 375.964844 425.835938 376.632812 426.320312 C 377.304688 426.804688 379.128906 427.039062 379.914062 426.824219 C 380.699219 426.605469 381.402344 424.941406 381.628906 423.675781 C 381.851562 422.40625 380.65625 411.898438 382.148438 408.84375 C 383.640625 405.785156 384.757812 394.15625 380.433594 389.6875 C 380.433594 386.855469 379.765625 382.007812 374.546875 378.730469 C 369.328125 375.449219 366.945312 375.898438 366.945312 375.898438 "/>
</svg>