<svg width="103" height="30" viewBox="0 0 103 30" fill="none" xmlns="http://www.w3.org/2000/svg">
<path d="M10.9824 20.4623C10.4556 20.7473 9.89166 20.8747 9.2906 20.8446C8.69526 20.8114 8.04689 20.4885 7.34547 19.8761L8.02261 19.4654C8.15122 20.2915 7.958 21.0289 7.44293 21.6776C6.93359 22.3233 6.26091 22.8723 5.42489 23.3245C5.21875 23.4361 5.01082 23.5374 4.80111 23.6287C4.59141 23.7199 4.38587 23.8052 4.18452 23.8845C4.05028 23.7869 3.92881 23.6787 3.8201 23.5599C3.7114 23.441 3.60903 23.2928 3.513 23.1153C3.44794 22.9951 3.39457 22.8759 3.35289 22.7578C3.85839 22.625 4.36309 22.4223 4.86699 22.1496C5.47969 21.8182 5.97542 21.4278 6.35419 20.9787C6.72986 20.5238 6.89244 20.0102 6.84193 19.4379C6.52605 19.1277 6.2433 18.8513 5.99369 18.6089C5.74408 18.3664 5.49447 18.1239 5.24487 17.8815C5.00098 17.6359 4.7242 17.3637 4.41451 17.0649C4.10745 16.7573 3.7359 16.3921 3.29986 15.9692C3.33722 15.6825 3.40593 15.4196 3.50599 15.1804C3.60606 14.9412 3.75728 14.7076 3.95966 14.4797C4.89295 15.507 5.68703 16.3728 6.34189 17.077C7.00248 17.7781 7.56689 18.3425 8.03513 18.7702C8.54533 19.2344 8.98587 19.4809 9.35676 19.5097C9.72455 19.5328 10.0573 19.4638 10.3551 19.3027L10.5269 19.2098L11.1542 20.3693L10.9824 20.4623ZM13.0378 19.6025C12.6138 19.7867 12.3093 19.919 12.1242 19.9994C11.9451 20.0772 11.8243 20.1261 11.762 20.1461C11.7023 20.172 11.6486 20.1954 11.6008 20.2161C11.553 20.2369 11.4545 20.2797 11.3052 20.3446C11.1619 20.4068 10.9111 20.5158 10.5528 20.6714L10.3737 20.7492L9.8484 19.54L10.0275 19.4622C10.5232 19.2469 10.9083 19.0796 11.183 18.9603C11.4577 18.8409 11.6739 18.7505 11.8318 18.6891C11.987 18.6216 12.1214 18.5633 12.2348 18.514C12.3543 18.4621 12.5065 18.3959 12.6916 18.3155C13.456 17.9835 13.978 17.6573 14.2576 17.3371C14.5407 17.0083 14.6475 16.6496 14.578 16.2609C14.4087 16.4268 14.2154 16.5782 13.9981 16.7152C13.7808 16.8522 13.5109 16.9907 13.1885 17.1308C12.5973 17.3876 12.0627 17.4885 11.5845 17.4336C11.1038 17.3727 10.69 17.2047 10.3433 16.9294C10.0026 16.6515 9.74788 16.3185 9.57926 15.9304C9.40287 15.5243 9.3285 15.0917 9.35615 14.6325C9.38978 14.1707 9.53982 13.74 9.80628 13.3403C10.0761 12.9321 10.4827 12.6099 11.0261 12.3738C11.7546 12.0574 12.4537 12.0163 13.1234 12.2506C13.7964 12.4764 14.4397 13.0913 15.0533 14.0953L15.2867 13.8236C15.3598 13.9267 15.4283 14.0354 15.4922 14.1496C15.562 14.2612 15.6176 14.3648 15.6591 14.4604C15.6902 14.532 15.7219 14.6212 15.754 14.7279C15.7922 14.832 15.8137 14.9469 15.8186 15.0725L15.6402 15.2991C15.9125 16.0894 15.9406 16.7586 15.7244 17.3068C15.5143 17.8524 15.1588 18.3085 14.6579 18.6751C14.163 19.0392 13.623 19.3483 13.0378 19.6025ZM17.6915 17.5702C17.2317 17.7699 16.8139 17.8947 16.438 17.9444C16.0681 17.9915 15.7032 17.9442 15.3435 17.8023L15.6729 16.4774C15.8829 16.5849 16.1066 16.6261 16.3442 16.601C16.5877 16.5733 16.8617 16.4933 17.1662 16.361L17.3454 16.2832L17.8707 17.4924L17.6915 17.5702ZM12.5981 15.9924C12.9325 15.8472 13.2113 15.7047 13.4346 15.5652C13.6639 15.423 13.8867 15.2659 14.103 15.0938C13.7164 14.3674 13.2921 13.8809 12.8301 13.6344C12.3741 13.3853 11.9341 13.3529 11.5101 13.5371C11.0742 13.7264 10.8016 13.9975 10.6922 14.3502C10.5862 14.6944 10.5993 15.0188 10.7316 15.3233C10.8665 15.6338 11.1015 15.8725 11.4366 16.0392C11.775 16.1974 12.1622 16.1818 12.5981 15.9924ZM11.3306 10.9426C10.9156 10.8531 10.5591 10.7596 10.2611 10.6619C9.9691 10.5616 9.78702 10.4774 9.71488 10.4094L10.2114 8.90538L11.9358 9.37004C11.8363 9.81079 11.7235 10.1721 11.5975 10.454C11.4749 10.7273 11.386 10.8901 11.3306 10.9426ZM9.47106 11.9314C9.056 11.842 8.70377 11.7501 8.41436 11.6558C8.12235 11.5555 7.936 11.4697 7.85529 11.3983L8.35181 9.89423L10.0801 10.3679C9.98058 10.8086 9.86781 11.1699 9.74182 11.4518C9.61921 11.7251 9.52896 11.885 9.47106 11.9314ZM22.9543 15.8692C22.3 16.0302 21.5316 16.2589 20.649 16.5554C19.7747 16.8559 18.6681 17.2414 17.3291 17.7121L17.1449 17.7769L16.7076 16.5332L16.8919 16.4684C17.2788 16.3324 17.6269 16.2134 17.9362 16.1116C18.2494 16.0015 18.5997 15.8887 18.987 15.7733C19.3721 15.6517 19.8629 15.5068 20.4593 15.3385C19.6747 15.2072 19.0411 15.0538 18.5585 14.8784C18.0737 14.6969 17.7006 14.4795 17.4391 14.2264C17.1816 13.965 16.9902 13.6562 16.865 13.2999C16.7289 12.913 16.7047 12.5006 16.7923 12.0626C16.8799 11.6247 17.0915 11.2156 17.4271 10.8354C17.7667 10.4469 18.2436 10.1446 18.8578 9.92873C19.3798 9.7452 19.9236 9.69207 20.489 9.76934C21.0523 9.84046 21.512 9.99975 21.8681 10.2472C21.8368 10.4722 21.7735 10.6945 21.6782 10.9143C21.587 11.1259 21.4408 11.3187 21.2398 11.4929C20.8558 11.3035 20.4997 11.1837 20.1715 11.1335C19.8433 11.0832 19.5072 11.1186 19.1633 11.2395C18.7518 11.3841 18.4723 11.61 18.325 11.9172C18.1754 12.2182 18.1503 12.5099 18.2496 12.7925C18.3792 13.161 18.6802 13.4382 19.1527 13.624C19.6252 13.8099 20.2287 13.9462 20.9631 14.0331C21.6975 14.12 22.5152 14.1983 23.4162 14.268C23.4009 14.5977 23.3513 14.8981 23.2672 15.1692C23.187 15.432 23.0827 15.6654 22.9543 15.8692ZM33.0548 18.7952C32.8864 18.6902 32.7233 18.5152 32.5655 18.27C32.4088 18.0313 32.308 17.8331 32.263 17.6755C33.029 17.2698 33.5775 16.823 33.9084 16.3351C34.2468 15.8527 34.4322 15.2792 34.4647 14.6147C34.4982 13.9567 34.4411 13.1648 34.2935 12.239C34.1909 11.5961 34.1182 11.0572 34.0752 10.6223C34.0322 10.1875 34.0242 9.8064 34.0511 9.47906C34.0834 9.14428 34.1504 8.82043 34.2521 8.50754C34.4172 8.01313 34.6997 7.63513 35.0997 7.37356C35.4987 7.10555 35.9489 6.93156 36.4504 6.85158C36.9454 6.77263 37.4369 6.8162 37.9249 6.9823C38.4183 7.14095 38.8471 7.43186 39.2113 7.85505C39.5754 8.27824 39.8134 8.84022 39.9252 9.541C40.0236 10.1582 39.9728 10.6871 39.7728 11.1278C39.5782 11.561 39.29 11.9036 38.9083 12.1557C38.5276 12.4142 38.109 12.5798 37.6525 12.6526C37.1253 12.7367 36.6641 12.718 36.2689 12.5964C35.8748 12.4812 35.5366 12.3242 35.2544 12.1253C34.9775 11.9189 34.753 11.7306 34.5808 11.5603L35.0436 10.1218C35.4416 10.7571 35.8494 11.1437 36.2669 11.2815C36.6898 11.4118 37.0878 11.4472 37.4606 11.3878C37.8785 11.3211 38.1875 11.1499 38.3874 10.8741C38.5938 10.5972 38.6626 10.2434 38.5939 9.81265C38.4985 9.21474 38.2464 8.7704 37.8374 8.47962C37.4349 8.18782 37.0214 8.07575 36.5971 8.14343C36.1921 8.20803 35.8933 8.38094 35.7008 8.66216C35.5073 8.93695 35.3936 9.27813 35.3597 9.68569C35.3248 10.0868 35.3437 10.5156 35.4165 10.9721C35.4606 11.2485 35.5095 11.5341 35.5631 11.8288C35.6221 12.1161 35.6741 12.4012 35.7193 12.6841C35.8936 13.777 35.8827 14.7215 35.6866 15.5175C35.498 16.319 35.1727 16.9873 34.7109 17.5224C34.2501 18.064 33.698 18.4883 33.0548 18.7952ZM41.7998 11.6846C41.1119 11.7943 40.5902 11.7885 40.2346 11.6672C39.878 11.5395 39.5389 11.3563 39.2173 11.1175L39.9014 9.95023C40.1096 10.1807 40.3376 10.329 40.5855 10.3949C40.8323 10.4544 41.1679 10.4504 41.5922 10.3827L41.7851 10.3519L41.9927 11.6538L41.7998 11.6846ZM45.7789 11.5974C45.3173 11.6204 44.8693 11.5254 44.4349 11.3124C44.0071 11.099 43.6679 10.7672 43.4173 10.3169C43.2615 10.7223 42.9783 11.0558 42.5676 11.3174C42.157 11.5791 41.7013 11.7224 41.2006 11.7474L41.0056 11.7571L40.9399 10.4404L41.135 10.4306C41.3431 10.4203 41.571 10.3502 41.8187 10.2206C42.073 10.0906 42.2874 9.88105 42.4621 9.59205C42.6364 9.29655 42.7109 8.8952 42.6856 8.38802L42.5272 7.76036C42.7242 7.65928 42.9224 7.58096 43.1217 7.52539C43.3272 7.463 43.5693 7.41508 43.8479 7.38164C43.9577 7.88461 44.0956 8.36336 44.2617 8.81789C44.4274 9.26592 44.6347 9.63041 44.8833 9.91134C45.1382 10.1855 45.4412 10.3138 45.7923 10.2963C46.1629 10.2778 46.4411 10.1694 46.6267 9.9711C46.8186 9.76598 46.9428 9.51208 46.9994 9.20941C47.0622 8.89991 47.0855 8.5826 47.0693 8.25748C47.067 8.21197 47.0617 8.16986 47.0532 8.13118C47.051 8.08566 47.0487 8.04014 47.0464 7.99463C47.01 7.78785 46.9761 7.62984 46.9446 7.52059C46.9127 7.40485 46.8854 7.31495 46.8627 7.2509C47.021 7.15826 47.2286 7.07295 47.4855 6.99496C47.7488 6.91665 47.9875 6.86564 48.2014 6.84194C48.4877 8.00752 48.76 8.82831 49.0184 9.30432C49.2833 9.78 49.6141 10.008 50.0107 9.98818C50.3553 9.971 50.6184 9.821 50.7998 9.53818C50.9809 9.24885 51.0621 8.91562 51.0433 8.53848C51.0232 8.13534 50.9475 7.72845 50.8162 7.31781C50.685 6.90717 50.5719 6.59992 50.477 6.39606C50.6477 6.28977 50.8483 6.19503 51.0788 6.11183C51.3093 6.02864 51.5445 5.97454 51.7845 5.94954C52.1208 6.81277 52.3072 7.60852 52.3435 8.33678C52.371 8.88948 52.285 9.38592 52.0853 9.82609C51.8921 10.2659 51.6163 10.6187 51.258 10.8842C50.9059 11.143 50.5022 11.2837 50.0471 11.3064C49.6504 11.3261 49.2722 11.257 48.9123 11.0989C48.5589 10.9406 48.2386 10.6599 47.9512 10.2571C47.718 10.6794 47.4051 11.0046 47.0123 11.2328C46.6192 11.4544 46.2081 11.576 45.7789 11.5974ZM53.7085 11.6976C53.7203 11.4895 53.7294 11.2586 53.7358 11.0047C53.7489 10.7446 53.7591 10.4713 53.7663 10.1849C53.7831 9.52109 53.7948 8.80175 53.8014 8.02693C53.8081 7.2456 53.8114 6.4707 53.8113 5.70222C53.8112 4.93374 53.8063 4.22701 53.7965 3.58203C53.7934 2.9307 53.7907 2.39661 53.7882 1.97974C53.7857 1.56288 53.7852 1.32516 53.7867 1.26659C53.8687 1.11236 54.0088 0.982396 54.2068 0.876691C54.4116 0.764643 54.6255 0.67562 54.8486 0.609624C55.0782 0.543792 55.2648 0.502924 55.4085 0.487019C55.4195 0.565448 55.4262 0.686099 55.4286 0.848972C55.4312 1.00534 55.4306 1.15837 55.4268 1.30806C55.4295 1.45791 55.4304 1.55237 55.4294 1.59142C55.4212 1.91683 55.4061 2.38535 55.3841 2.99697C55.3688 3.60225 55.345 4.28546 55.3127 5.0466C55.287 5.80791 55.2577 6.5789 55.2249 7.35958C55.1923 8.13374 55.1579 8.8525 55.1216 9.51585C55.0852 10.1792 55.0521 10.7189 55.022 11.1349C54.8876 11.3009 54.6954 11.4295 54.4457 11.5209C54.1959 11.6123 53.9502 11.6712 53.7085 11.6976ZM53.5859 17.5868C53.3649 17.4087 53.197 17.2066 53.0821 16.9805C52.9672 16.7545 52.9042 16.537 52.8929 16.328C53.9684 15.986 54.8132 15.547 55.4272 15.0109C56.041 14.4813 56.4832 13.844 56.7537 13.0989C57.0304 12.3605 57.1876 11.5132 57.2254 10.5569C57.2421 10.134 57.24 9.6909 57.2192 9.22748C57.2052 8.75781 57.1756 8.26798 57.1306 7.758C57.5424 7.55924 58.0025 7.45686 58.511 7.45087C58.6972 8.34432 58.9349 9.00851 59.224 9.44343C59.513 9.87834 59.934 10.1067 60.487 10.1285L60.6724 10.1359L60.6204 11.4532L60.2984 11.4405C59.9211 11.4256 59.5666 11.3269 59.235 11.1444C58.9102 10.9557 58.6531 10.7012 58.4637 10.381C58.4661 10.4853 58.4654 10.5863 58.4616 10.6839C58.4577 10.7814 58.4539 10.879 58.45 10.9766C58.3845 12.6355 57.9687 14.0101 57.2024 15.1005C56.4424 16.1977 55.2369 17.0265 53.5859 17.5868ZM64.5222 12.3695C63.999 12.3037 63.5614 12.1568 63.2095 11.9288C62.8632 11.7081 62.5824 11.4628 62.367 11.1929C62.1589 10.9174 61.996 10.6738 61.8782 10.4621L62.7247 9.21032C62.9292 9.93159 63.2127 10.4167 63.5751 10.6657C63.9447 10.9091 64.3169 11.0543 64.6915 11.1014C65.1114 11.1543 65.4623 11.077 65.7443 10.8697C66.0328 10.6632 66.2042 10.3435 66.2586 9.91076C66.3342 9.31002 66.2292 8.81453 65.9437 8.42428C65.6646 8.03484 65.286 7.81005 64.808 7.74992C64.1943 7.67273 63.7367 7.8678 63.4352 8.33511C63.1336 8.80243 62.9369 9.40105 62.8451 10.131C62.6201 10.772 62.2568 11.1823 61.7552 11.362C61.2536 11.5417 60.6576 11.5848 59.9673 11.4914C59.9414 11.4882 59.9091 11.4841 59.8704 11.4792C59.8251 11.4736 59.7864 11.4687 59.7541 11.4646L59.9186 10.1566C59.9509 10.1606 59.9832 10.1647 60.0155 10.1688C60.0414 10.172 60.0737 10.1761 60.1124 10.1809C60.5387 10.2346 60.8844 10.2255 61.1493 10.1539C61.415 10.0758 61.5564 9.96888 61.5735 9.83323C61.58 9.78155 61.5861 9.73311 61.5918 9.68789C61.5983 9.63621 61.61 9.56879 61.627 9.48563C61.7106 9.03026 61.8146 8.64636 61.9392 8.33395C62.0647 8.01508 62.2236 7.71682 62.416 7.43919C62.7127 7.01063 63.0896 6.72667 63.5468 6.58733C64.0047 6.44152 64.4856 6.40031 64.9895 6.46369C65.4869 6.52625 65.9466 6.70548 66.3687 7.00136C66.7981 7.29159 67.1285 7.69076 67.3598 8.19887C67.5912 8.70698 67.6626 9.31308 67.574 10.0172C67.496 10.6373 67.2994 11.1309 66.9842 11.4981C66.6762 11.8596 66.3038 12.1081 65.8668 12.2434C65.429 12.3852 64.9808 12.4272 64.5222 12.3695ZM74.7993 13.0403C74.3893 12.9356 74.0175 12.7734 73.6838 12.5539C73.3565 12.3359 73.1099 12.0781 72.944 11.7804C72.7844 11.4843 72.7489 11.1628 72.8375 10.8158C72.9616 10.3301 73.4076 9.87286 74.1756 9.44408C74.9451 9.00898 76.1033 8.55215 77.65 8.07359L77.6554 9.355C77.1004 9.50222 76.5563 9.6858 76.0231 9.90576C75.4914 10.1194 75.0483 10.3288 74.6935 10.5338C74.3404 10.7326 74.1509 10.8824 74.1252 10.9834C74.0881 11.1285 74.1679 11.2765 74.3645 11.4275C74.5628 11.5722 74.8164 11.684 75.1255 11.7629C75.5229 11.8644 75.9586 11.8816 76.4327 11.8145C76.9083 11.7411 77.2995 11.5117 77.6062 11.1264L77.6486 12.5786C77.2681 12.8845 76.818 13.0686 76.2982 13.1307C75.7847 13.1945 75.285 13.1643 74.7993 13.0403ZM79.0808 15.1011C78.6707 14.9964 78.3226 14.8336 78.0363 14.6127C77.7517 14.3855 77.5362 14.0583 77.3899 13.6313C77.2516 13.1995 77.1913 12.6197 77.2092 11.8918C77.2244 11.385 77.2512 10.9249 77.2896 10.5114C77.328 10.0979 77.368 9.67804 77.4096 9.25192C77.4591 8.82109 77.5018 8.33812 77.5377 7.80301C77.6328 7.7198 77.807 7.61646 78.0603 7.493C78.3136 7.36953 78.6004 7.32518 78.9208 7.35995C78.7284 8.87643 78.5936 10.0884 78.5164 10.996C78.4455 11.9052 78.4721 12.5772 78.5962 13.012C78.7267 13.4485 78.9969 13.7191 79.4069 13.8238L79.5962 13.8721L79.27 15.1495L79.0808 15.1011ZM82.962 16.7644C82.4629 16.594 82.0641 16.3616 81.7657 16.0671C81.4713 15.7808 81.2459 15.4838 81.0896 15.1759C80.9416 14.8639 80.8313 14.5924 80.7589 14.3613L81.8412 13.3067C81.8955 14.0545 82.0749 14.587 82.3794 14.9042C82.6921 15.2173 83.0272 15.4349 83.3845 15.5569C83.785 15.6936 84.1443 15.689 84.4624 15.543C84.7867 15.3992 85.0193 15.1209 85.1602 14.7081C85.3558 14.1351 85.3533 13.6286 85.1527 13.1886C84.9582 12.7507 84.633 12.454 84.177 12.2983C83.5917 12.0985 83.1041 12.1969 82.7142 12.5935C82.3242 12.9901 82.0104 13.5365 81.7728 14.2327C81.4227 14.8149 80.9838 15.1432 80.4562 15.2176C79.9286 15.292 79.3363 15.2136 78.6791 14.9824C78.6545 14.974 78.6237 14.9635 78.5867 14.9509C78.5436 14.9361 78.5066 14.9235 78.4758 14.913L78.9017 13.6653C78.9325 13.6759 78.9633 13.6864 78.9941 13.6969C79.0188 13.7053 79.0496 13.7158 79.0865 13.7284C79.4932 13.8673 79.8335 13.9284 80.1074 13.9119C80.3835 13.8891 80.5436 13.8131 80.5878 13.6837C80.6046 13.6344 80.6204 13.5882 80.6351 13.5451C80.6519 13.4958 80.6771 13.4321 80.7106 13.3542C80.8846 12.9251 81.0642 12.5702 81.2495 12.2895C81.4368 12.0026 81.6528 11.7427 81.8974 11.5098C82.2747 11.1502 82.7014 10.9484 83.1773 10.9045C83.6553 10.8544 84.1346 10.9114 84.6151 11.0755C85.0896 11.2374 85.5035 11.506 85.857 11.8812C86.2187 12.2523 86.4614 12.7101 86.5851 13.2545C86.7089 13.799 86.6561 14.407 86.4268 15.0786C86.2249 15.67 85.9324 16.1137 85.5494 16.4094C85.1746 16.7011 84.7596 16.869 84.3043 16.9131C83.8469 16.9633 83.3994 16.9137 82.962 16.7644ZM89.6862 18.9818C88.9507 18.6819 88.4175 18.3344 88.0865 17.9392C87.7615 17.5465 87.5798 17.1385 87.5416 16.7151C87.5118 16.2881 87.5605 15.8756 87.6877 15.4775C87.8012 15.13 87.9547 14.6934 88.148 14.1676C88.3438 13.6358 88.5519 13.0738 88.7723 12.4816C89.0012 11.8859 89.2214 11.3113 89.4331 10.7578C89.6447 10.2043 89.8257 9.72619 89.9759 9.32339C90.1321 8.92306 90.2312 8.65412 90.2733 8.51658C90.4046 8.4014 90.5816 8.32944 90.8042 8.30071C91.0354 8.26841 91.2669 8.2609 91.4989 8.27817C91.737 8.2979 91.926 8.32577 92.066 8.36177C92.0398 8.47765 91.9831 8.65137 91.8957 8.88291C91.8107 9.10841 91.7437 9.28145 91.6945 9.40202C91.4929 9.89635 91.2447 10.4877 90.95 11.176C90.6637 11.8608 90.3695 12.5564 90.0673 13.2629C89.7676 13.9633 89.5022 14.5968 89.2711 15.1635C89.0843 15.6216 88.9663 16.0059 88.917 16.3163C88.8703 16.6206 88.9386 16.8841 89.1221 17.1065C89.3116 17.3315 89.6656 17.5496 90.184 17.7611L90.3649 17.8348L89.8671 19.0556L89.6862 18.9818ZM89.3198 18.8197L89.8646 17.6192L90.1314 17.7403C90.7598 18.0254 91.2434 18.1019 91.5822 17.9697C91.9211 17.8375 92.182 17.5698 92.3649 17.1667C92.4671 16.9414 92.5521 16.6833 92.6198 16.3923C92.6902 16.0953 92.7655 15.772 92.8455 15.4223C93.0056 15.4163 93.2203 15.4315 93.4897 15.468C93.7618 15.4985 93.9852 15.5498 94.1598 15.6219C94.0838 16.4668 93.91 17.1886 93.6382 17.7874C93.2858 18.5641 92.7699 19.0628 92.0906 19.2836C91.4113 19.5043 90.5766 19.3901 89.5866 18.9408L89.3198 18.8197ZM93.4843 14.511C93.2626 14.1173 93.0865 13.7728 92.9559 13.4777C92.8253 13.1825 92.7595 12.981 92.7583 12.8732L94.1908 12.1506L95.0494 13.8271C94.2021 14.3077 93.6804 14.5357 93.4843 14.511ZM90.0662 26.1834C89.9405 25.9288 89.8731 25.6749 89.8639 25.4215C89.8547 25.1681 89.8889 24.9442 89.9665 24.7499C91.0861 24.8917 92.0372 24.8485 92.8197 24.6203C93.5993 24.3978 94.2684 24.0054 94.8271 23.443C95.3886 22.8894 95.8875 22.1867 96.3237 21.3349C96.5167 20.9583 96.7011 20.5553 96.877 20.1261C97.0617 19.6941 97.2409 19.2372 97.4144 18.7555C97.8716 18.7483 98.3321 18.8489 98.796 19.0572C98.5894 19.9462 98.5258 20.6487 98.6052 21.1648C98.6847 21.681 98.9707 22.0652 99.4632 22.3175L99.6284 22.402L99.0274 23.5754L98.7405 23.4285C98.4045 23.2564 98.1243 23.0178 97.9002 22.7129C97.6848 22.405 97.5585 22.0661 97.5213 21.6959C97.4796 21.7916 97.4365 21.8829 97.392 21.9698C97.3475 22.0567 97.303 22.1437 97.2585 22.2306C96.5017 23.7082 95.5464 24.7806 94.3928 25.4479C93.2419 26.1239 91.7997 26.3691 90.0662 26.1834ZM96.6781 22.3545L97.3347 21.2113L97.5887 21.3572C98.1871 21.7009 98.6613 21.8231 99.0112 21.7237C99.361 21.6244 99.6462 21.3827 99.8667 20.9988C99.9899 20.7843 100.099 20.5354 100.194 20.2522C100.293 19.9633 100.398 19.6486 100.511 19.3081C100.671 19.3173 100.883 19.3529 101.148 19.4149C101.416 19.4712 101.634 19.5435 101.8 19.6319C101.644 20.4657 101.403 21.1677 101.075 21.7379C100.65 22.4775 100.089 22.9249 99.3921 23.08C98.6949 23.2351 97.8749 23.0419 96.9321 22.5004L96.6781 22.3545ZM96.6045 26.0512C96.4213 25.6381 96.2788 25.2785 96.1769 24.9722C96.075 24.6659 96.0286 24.4591 96.0377 24.3517L97.5325 23.7687L98.2276 25.5194C97.3384 25.9171 96.7974 26.0944 96.6045 26.0512Z" fill="black"/>
</svg>
